<svg xmlns="http://www.w3.org/2000/svg" width="512" height="512" viewBox="0 0 512 512" version="1.1"><path d="M 175.500 351.336 C 170.550 352.526, 165.938 353.864, 165.250 354.309 C 164.383 354.870, 164 358.279, 164 365.431 L 164 375.744 168.134 376.405 C 170.407 376.769, 172.378 376.939, 172.514 376.783 C 173.135 376.070, 187 349.972, 187 349.516 C 187 348.718, 185.206 349.002, 175.500 351.336 M 325.288 350.250 C 325.564 350.938, 332.540 364.100, 340.792 379.500 C 349.043 394.900, 355.660 407.643, 355.496 407.818 C 355.331 407.993, 349.219 409.014, 341.913 410.087 C 334.607 411.160, 328.513 412.153, 328.371 412.295 C 328.229 412.437, 329.877 419.517, 332.032 428.027 C 334.188 436.537, 335.963 443.589, 335.976 443.697 C 335.989 443.805, 321.742 457.305, 304.315 473.697 L 272.631 503.500 305.888 503.764 C 324.180 503.909, 353.780 503.909, 371.666 503.764 L 404.187 503.500 424.140 445.520 C 442.876 391.075, 443.983 387.459, 442.296 386.194 C 438.743 383.530, 422.293 376.108, 412 372.525 C 401.006 368.698, 375.674 360.872, 375.564 361.270 C 375.529 361.396, 375.639 373.699, 375.809 388.609 L 376.117 415.719 380.070 417.023 C 389.506 420.137, 396 429.450, 396 439.867 C 396 453.990, 386.045 464, 372 464 C 357.955 464, 348 453.990, 348 439.867 C 348 429.370, 354.494 420.137, 364.108 416.964 L 368.239 415.601 367.694 391.551 C 367.394 378.323, 366.636 365.395, 366.009 362.822 L 364.869 358.143 345.868 353.572 C 324.858 348.517, 324.574 348.471, 325.288 350.250 M 137.309 360.935 C 99.617 371.488, 68.333 384.078, 68.625 388.576 C 68.693 389.634, 72.890 402.425, 77.951 417 C 89.037 448.927, 95.393 467.367, 102.425 488 L 107.707 503.500 173.603 503.705 L 239.500 503.909 226 490.900 C 218.575 483.745, 210.193 475.883, 207.373 473.429 L 202.246 468.967 199.052 471.952 C 195.024 475.714, 192.429 476.167, 177 475.798 L 164.500 475.500 164.500 472 L 164.500 468.500 177.648 468 C 188.729 467.579, 191.126 467.201, 192.898 465.595 C 194.054 464.547, 195 463.270, 195 462.757 C 195 462.244, 190.722 457.701, 185.493 452.662 L 175.986 443.500 179.936 428.027 C 182.109 419.517, 183.731 412.398, 183.541 412.208 C 183.241 411.907, 158.764 408.085, 156.746 408.023 C 156.332 408.010, 158.764 402.768, 162.152 396.374 L 168.311 384.748 158.905 385.191 C 147.901 385.709, 142.109 388.126, 135.118 395.118 C 125.705 404.530, 123.693 413.478, 124.186 443.725 C 124.585 468.166, 123.994 467.275, 140.276 468 L 151.500 468.500 151.500 472 L 151.500 475.500 138.500 475.500 C 126.654 475.500, 125.222 475.302, 122.373 473.270 C 116.357 468.978, 116 467.008, 116 438.067 C 116 414.424, 116.194 411.361, 118.037 405.890 C 120.610 398.252, 123.501 393.685, 129.363 388 C 135.050 382.484, 142.629 378.426, 150.250 376.815 L 156 375.600 156 365.800 C 156 360.410, 155.662 356.027, 155.250 356.061 C 154.838 356.094, 146.764 358.287, 137.309 360.935" stroke="none" fill="#eff0f0" fill-rule="evenodd"/><path d="M 198.195 338.590 C 193.563 340.898, 187 347.144, 187 349.244 C 187 349.677, 183.850 355.867, 180 363 C 176.150 370.133, 173.008 376.313, 173.017 376.734 C 173.026 377.155, 175.567 378.597, 178.663 379.938 C 187.046 383.569, 195.233 391.670, 199.747 400.801 L 203.500 408.392 203.465 436.946 C 203.446 452.651, 203.221 466.212, 202.965 467.081 C 202.652 468.144, 208.687 474.511, 221.370 486.499 C 231.749 496.308, 239.972 503.472, 239.643 502.417 C 239.315 501.363, 233.160 469.675, 225.966 432 C 208.578 340.930, 208 337.870, 208 336.866 C 208 335.203, 203.353 336.020, 198.195 338.590 M 304 336.866 C 304 337.870, 303.422 340.930, 286.034 432 C 278.840 469.675, 272.684 501.366, 272.354 502.424 C 272.024 503.483, 286.210 490.744, 303.877 474.116 C 321.545 457.487, 335.989 443.796, 335.976 443.691 C 335.963 443.586, 334.188 436.537, 332.032 428.027 C 329.877 419.517, 328.229 412.437, 328.371 412.295 C 328.513 412.153, 334.607 411.160, 341.913 410.087 C 349.219 409.014, 355.332 407.993, 355.496 407.818 C 355.660 407.643, 351.090 398.725, 345.341 388 C 339.592 377.275, 332.174 363.325, 328.858 357 C 325.541 350.675, 321.890 344.490, 320.744 343.255 C 316.621 338.812, 304 333.997, 304 336.866 M 162.174 396.299 C 158.900 402.459, 156.313 407.604, 156.425 407.731 C 156.538 407.859, 162.607 408.840, 169.913 409.913 C 177.219 410.986, 183.352 412.019, 183.542 412.209 C 183.732 412.398, 182.109 419.517, 179.936 428.027 L 175.986 443.500 185.743 452.901 L 195.500 462.302 195.780 442.401 C 195.934 431.456, 195.587 419.429, 195.010 415.676 C 192.802 401.336, 184.557 391.344, 170.529 386.011 C 168.248 385.144, 167.824 385.667, 162.174 396.299 M 61.608 394.653 C 47.915 411.087, 32.784 436.537, 22.985 459.615 C 17.299 473.005, 10.051 493.639, 8.534 500.750 L 7.841 504 57.885 504 L 107.929 504 98.372 476.250 C 93.116 460.988, 88.450 447.375, 88.002 446 C 84.575 435.467, 68.871 390.592, 68.180 389.358 C 67.487 388.119, 66.163 389.186, 61.608 394.653 M 443.596 389 C 443.286 389.825, 434.290 415.925, 423.606 447 L 404.182 503.500 453.748 503.759 C 481.010 503.902, 503.519 503.815, 503.768 503.565 C 504.536 502.798, 498.157 482.330, 493.336 470.093 C 486.769 453.420, 480.128 439.664, 472.168 426.239 C 460.120 405.922, 444.762 385.906, 443.596 389" stroke="none" fill="#e4e5e6" fill-rule="evenodd"/><path d="M 305.250 136.742 C 308.962 136.934, 315.038 136.934, 318.750 136.742 C 322.462 136.549, 319.425 136.392, 312 136.392 C 304.575 136.392, 301.538 136.549, 305.250 136.742 M 140.252 195.500 C 140.263 197.700, 140.468 198.482, 140.707 197.238 C 140.946 195.994, 140.937 194.194, 140.687 193.238 C 140.437 192.282, 140.241 193.300, 140.252 195.500 M 122.061 242.573 C 124.593 245.625, 130.805 248, 136.210 247.985 C 142.877 247.965, 144.316 247.105, 143.450 243.655 L 142.783 241 131.769 241 C 121.865 241, 120.887 241.158, 122.061 242.573 M 368.630 243.250 C 367.471 247.576, 367.825 248, 372.596 248 C 377.771 248, 386 244.053, 386 241.571 C 386 241.257, 382.227 241, 377.617 241 C 369.768 241, 369.195 241.144, 368.630 243.250 M 245.571 257.571 C 244.707 258.436, 244 259.461, 244 259.849 C 244 261.887, 247.518 265.032, 251.498 266.553 C 255.760 268.180, 256.242 268.179, 260.542 266.537 C 265.404 264.680, 268.422 261.262, 267.445 258.718 C 266.440 256.099, 263.774 255.791, 260.845 257.956 C 257.359 260.534, 254.511 260.547, 251.273 258 C 248.208 255.589, 247.599 255.543, 245.571 257.571 M 229.571 289.571 C 228.707 290.436, 228 291.561, 228 292.071 C 228 295.423, 239.467 301.326, 249.304 303.039 C 257.896 304.536, 266.808 303.089, 275.694 298.757 C 282.287 295.542, 284.433 293.291, 283.419 290.650 C 282.332 287.816, 279.966 288.069, 272.863 291.779 C 266.063 295.331, 265.298 295.500, 256 295.500 C 246.688 295.500, 245.945 295.335, 239.081 291.750 C 235.133 289.688, 231.731 288, 231.523 288 C 231.314 288, 230.436 288.707, 229.571 289.571 M 208 328.450 C 208 332.115, 208.503 337.114, 209.119 339.557 L 210.237 344 256 344 L 301.763 344 302.881 339.557 C 303.497 337.114, 304 332.115, 304 328.450 C 304 322.474, 303.819 321.866, 302.250 322.564 C 274.307 334.979, 237.693 334.979, 209.750 322.564 C 208.181 321.866, 208 322.474, 208 328.450 M 212.329 357.689 C 212.605 358.685, 213.630 363.904, 214.606 369.287 L 216.381 379.075 220.940 381.094 C 231.451 385.747, 240.739 387.425, 256 387.425 C 271.261 387.425, 280.549 385.747, 291.060 381.094 L 295.619 379.075 297.394 369.287 C 298.370 363.904, 299.395 358.686, 299.671 357.691 C 300.041 356.357, 298.927 356.832, 295.435 359.497 C 273.827 375.991, 239.772 375.956, 216.749 359.415 C 213.012 356.730, 211.948 356.315, 212.329 357.689" stroke="none" fill="#ffac6a" fill-rule="evenodd"/><path d="M 381.637 185.788 C 381.398 186.180, 380.666 188.525, 380.009 191 C 379.353 193.475, 377.312 199.550, 375.474 204.500 C 373.154 210.744, 371.787 216.715, 371.007 224 C 370.389 229.775, 369.212 237.130, 368.390 240.344 C 367.568 243.559, 367.072 246.709, 367.286 247.344 C 367.500 247.980, 367.994 246.813, 368.383 244.750 L 369.091 241 377.462 241 C 383.084 241, 385.965 241.394, 386.233 242.200 C 386.774 243.821, 394.376 233.613, 397.216 227.454 C 399.135 223.291, 399.500 220.823, 399.500 212 C 399.500 202.393, 399.270 201.109, 396.800 196.906 C 394.011 192.163, 389.025 187.720, 384.604 186.039 C 383.211 185.510, 381.875 185.397, 381.637 185.788 M 118.217 188.958 C 115.971 190.585, 112.866 194.072, 111.317 196.708 C 108.711 201.141, 108.500 202.286, 108.500 212 C 108.500 221.298, 108.807 223.154, 111.179 228.217 C 112.653 231.361, 114.345 234.511, 114.940 235.217 C 118.771 239.763, 122.101 243.312, 121.541 242.250 C 121.033 241.286, 123.387 241, 131.833 241 L 142.783 241 143.440 243.618 C 143.802 245.058, 144.284 246.049, 144.512 245.821 C 144.740 245.594, 144.302 243.039, 143.538 240.145 C 142.775 237.251, 141.622 229.890, 140.977 223.787 C 139.884 213.442, 139.544 212.309, 135.941 207.031 C 133.816 203.918, 130.435 197.913, 128.428 193.686 C 126.420 189.459, 124.220 186, 123.539 186 C 122.858 186, 120.463 187.331, 118.217 188.958 M 140.232 202 C 140.232 203.925, 140.438 204.713, 140.689 203.750 C 140.941 202.787, 140.941 201.213, 140.689 200.250 C 140.438 199.287, 140.232 200.075, 140.232 202 M 251.273 258 C 252.671 259.100, 254.143 260, 254.543 260 C 254.943 260, 254.126 259.100, 252.727 258 C 251.329 256.900, 249.857 256, 249.457 256 C 249.057 256, 249.874 256.900, 251.273 258 M 259.139 258.033 C 256.039 260.616, 257.439 260.587, 260.727 258 C 262.126 256.900, 262.872 256.015, 262.385 256.033 C 261.898 256.052, 260.438 256.952, 259.139 258.033 M 249.441 266.445 C 250.509 267.300, 252.084 267.964, 252.941 267.921 C 254.288 267.853, 254.296 267.766, 253 267.286 C 252.175 266.980, 250.600 266.316, 249.500 265.810 C 247.532 264.904, 247.531 264.915, 249.441 266.445 M 271 292 C 269.075 293.054, 267.860 293.935, 268.300 293.958 C 269.359 294.014, 275 291.081, 275 290.474 C 275 289.820, 274.941 289.842, 271 292 M 245.264 331.718 C 246.784 331.947, 249.034 331.941, 250.264 331.704 C 251.494 331.467, 250.250 331.279, 247.500 331.286 C 244.750 331.294, 243.744 331.488, 245.264 331.718 M 262.264 331.718 C 263.784 331.947, 266.034 331.941, 267.264 331.704 C 268.494 331.467, 267.250 331.279, 264.500 331.286 C 261.750 331.294, 260.744 331.488, 262.264 331.718 M 210 344.951 C 210 345.474, 210.493 348.202, 211.097 351.014 C 212.315 356.698, 215.424 359.609, 226.025 364.995 C 234.815 369.460, 239.223 370.211, 256.676 370.211 C 275.510 370.211, 281.791 368.701, 292.313 361.647 C 298.883 357.243, 300.386 355.047, 301.487 348.250 L 302.176 344 256.088 344 C 227.620 344, 210 344.363, 210 344.951 M 249.762 371.707 C 251.006 371.946, 252.806 371.937, 253.762 371.687 C 254.718 371.437, 253.700 371.241, 251.500 371.252 C 249.300 371.263, 248.518 371.468, 249.762 371.707 M 258.750 371.706 C 259.988 371.944, 262.012 371.944, 263.250 371.706 C 264.488 371.467, 263.475 371.272, 261 371.272 C 258.525 371.272, 257.512 371.467, 258.750 371.706 M 224.140 419.816 C 228.409 442.192, 233.775 470.288, 236.066 482.250 L 240.230 504 256 504 L 271.770 504 275.934 482.250 C 278.225 470.288, 283.591 442.192, 287.860 419.816 L 295.622 379.131 292.061 380.678 C 278.396 386.614, 261.360 389.022, 245.750 387.224 C 235.893 386.089, 227.488 383.957, 219.939 380.678 L 216.378 379.131 224.140 419.816" stroke="none" fill="#ffcf97" fill-rule="evenodd"/><path d="M 228 9.054 C 195.999 12.908, 171.690 23.477, 156.685 40.059 C 151.477 45.814, 144 58.838, 144 62.156 C 144 62.984, 142.824 64.292, 141.386 65.061 C 133.287 69.396, 123.782 85.552, 119.361 102.500 C 117.166 110.913, 116.676 115.356, 116.270 130.500 C 115.738 150.307, 116.928 160.471, 121.566 175.764 C 124.317 184.833, 133.493 203.766, 137.432 208.500 L 139.928 211.500 139.973 204.500 C 140.153 176.263, 145.184 142.707, 151.900 124.940 C 155.500 115.417, 155.021 115.650, 166 118.061 C 193.316 124.059, 230.978 130.163, 262.500 133.701 C 284.791 136.203, 339.679 136.210, 351.430 133.713 C 355.792 132.786, 359.554 132.221, 359.791 132.457 C 361.218 133.885, 369.395 181.789, 371.132 198.903 L 372.391 211.305 374.212 207.018 C 377.491 199.296, 383.026 179.746, 385.256 168.008 C 387.092 158.346, 387.441 152.971, 387.435 134.500 C 387.428 113.695, 387.280 111.957, 384.710 102.500 C 372.763 58.541, 335.279 23.712, 286.584 11.323 C 277.679 9.058, 274.103 8.722, 256 8.454 C 244.725 8.287, 232.125 8.557, 228 9.054 M 193.734 169.030 C 189.532 170.085, 182.950 173.240, 178.695 176.238 C 175.609 178.413, 175.367 181.586, 178.155 183.333 C 179.426 184.129, 181.516 183.508, 187.155 180.656 C 199.185 174.573, 208.602 174.725, 221.783 181.214 C 228.669 184.604, 231.194 184.349, 231.812 180.203 C 232.201 177.597, 226.890 173.883, 218.434 170.849 C 211.783 168.461, 199.580 167.563, 193.734 169.030 M 298 169.412 C 286.745 172.818, 279.721 177.095, 280.195 180.255 C 280.807 184.348, 283.355 184.592, 290.217 181.214 C 303.398 174.725, 312.815 174.573, 324.845 180.656 C 332.487 184.521, 335.065 184.500, 335.838 180.568 C 336.355 177.938, 333.603 175.574, 325.883 172.016 C 320.174 169.384, 317.290 168.701, 310.669 168.409 C 305.621 168.187, 300.781 168.570, 298 169.412 M 199.500 204.903 C 195.049 206.858, 192.500 210.921, 192.500 216.061 C 192.500 220.262, 192.966 221.428, 195.769 224.231 C 198.583 227.045, 199.730 227.500, 204 227.500 C 208.270 227.500, 209.417 227.045, 212.231 224.231 C 215.045 221.417, 215.500 220.270, 215.500 216 C 215.500 211.787, 215.033 210.572, 212.407 207.945 C 209.105 204.643, 203.239 203.261, 199.500 204.903 M 303.500 204.903 C 299.049 206.858, 296.500 210.921, 296.500 216.061 C 296.500 220.262, 296.966 221.428, 299.769 224.231 C 302.583 227.045, 303.730 227.500, 308 227.500 C 312.270 227.500, 313.417 227.045, 316.231 224.231 C 319.045 221.417, 319.500 220.270, 319.500 216 C 319.500 211.787, 319.033 210.572, 316.407 207.945 C 313.105 204.643, 307.239 203.261, 303.500 204.903 M 314.140 315.987 L 307.780 319.817 314.640 320.473 C 336.415 322.553, 352.951 333.688, 361.985 352.352 C 364.180 356.885, 366.430 362.997, 366.987 365.933 C 367.544 368.870, 368 381.449, 368 393.886 L 368 416.500 372 416.500 L 376 416.500 376 393.338 C 376 366.398, 374.892 358.657, 369.390 347.175 C 366.561 341.272, 363.841 337.637, 357.606 331.429 C 348.896 322.756, 342.024 318.316, 332.500 315.209 C 321.862 311.739, 321.144 311.770, 314.140 315.987 M 180.286 316.494 C 171.535 320.871, 164.016 328.632, 159.701 337.741 C 156.590 344.310, 156.491 344.940, 156.164 360.171 L 155.827 375.842 150.664 377.059 C 142.838 378.903, 134.304 383.600, 128.824 389.081 C 122.805 395.100, 117.312 406.216, 116.387 414.250 L 115.725 420 119.749 420 L 123.773 420 124.434 415.250 C 126.050 403.642, 134.626 392.389, 145.825 387.182 C 150.556 384.982, 152.915 384.543, 160 384.543 C 167.085 384.543, 169.444 384.982, 174.175 387.182 C 185.374 392.389, 193.950 403.642, 195.566 415.250 L 196.227 420 200.251 420 L 204.275 420 203.613 414.250 C 201.597 396.736, 186.718 380.706, 168.938 376.893 L 163.728 375.776 164.244 362.138 C 164.613 352.358, 165.266 347.227, 166.551 344 C 172.060 330.164, 181.898 322.855, 198.500 320.261 L 203.500 319.480 198.235 316.240 C 195.339 314.458, 191.687 313, 190.119 313 C 188.551 313, 184.126 314.572, 180.286 316.494 M 363.922 426.274 C 358.739 429.766, 356 434.512, 356 440 C 356 445.488, 358.739 450.234, 363.922 453.726 C 370.890 458.422, 380.419 455.954, 385.726 448.078 C 392.339 438.266, 384.207 424, 372 424 C 368.763 424, 366.243 424.709, 363.922 426.274 M 140 472 L 140 476.105 145.147 475.802 C 154.711 475.241, 154.711 468.759, 145.147 468.198 L 140 467.895 140 472 M 165.200 469.200 C 164.540 469.860, 164 471.120, 164 472 C 164 474.760, 166.232 476, 171.200 476 L 176 476 176 472 L 176 468 171.200 468 C 168.560 468, 165.860 468.540, 165.200 469.200" stroke="none" fill="#64595b" fill-rule="evenodd"/><path d="M 153.478 122.227 C 150.086 129.787, 145.669 147.425, 143.633 161.543 C 139.866 187.666, 139.610 224.989, 143.106 238.301 C 143.655 240.392, 144.298 243.616, 144.535 245.466 C 146.068 257.440, 157.295 279.032, 168.854 292.238 C 174.878 299.120, 186.060 309.185, 189.803 311.095 C 194.493 313.487, 202.449 318.379, 203.821 319.715 C 204.548 320.422, 205.448 321.034, 205.821 321.077 C 207.633 321.281, 210.145 322.088, 217.628 324.869 C 240.875 333.509, 271.060 333.514, 294.372 324.879 C 298.843 323.224, 303.367 321.684, 304.427 321.458 C 305.486 321.232, 306.611 320.685, 306.927 320.243 C 307.713 319.140, 319.930 312, 321.030 312 C 322.745 312, 336.564 299.780, 342.316 293.176 C 359.581 273.356, 367.773 253.642, 371.021 224.093 C 372.623 209.517, 370.151 186.472, 362.915 148.522 L 359.836 132.373 353.668 133.675 C 329.149 138.853, 280.502 137.371, 229.500 129.894 C 211.146 127.203, 180.237 121.684, 166.813 118.701 L 156.127 116.326 153.478 122.227 M 190.487 169.799 C 187.730 170.752, 183.316 172.797, 180.679 174.342 C 176.367 176.869, 175.916 177.472, 176.192 180.326 C 176.621 184.745, 179.744 184.948, 187.088 181.034 C 198.033 175.200, 210.584 175.383, 221.898 181.541 C 224.559 182.989, 227.807 184.022, 229.118 183.837 C 231.092 183.558, 231.500 182.920, 231.500 180.112 C 231.500 177.019, 231.022 176.476, 226 173.866 C 222.975 172.294, 218.281 170.331, 215.568 169.504 C 208.942 167.483, 196.769 167.627, 190.487 169.799 M 296 169.514 C 293.525 170.331, 289.025 172.287, 286 173.862 C 280.979 176.475, 280.500 177.019, 280.500 180.112 C 280.500 184.739, 283.227 184.988, 291.239 181.091 C 303.050 175.346, 314.198 175.323, 324.891 181.022 C 328.135 182.752, 331.850 184.017, 333.145 183.833 C 335.106 183.556, 335.500 182.915, 335.500 180 C 335.500 176.637, 335.194 176.345, 327.687 172.533 C 320.386 168.825, 319.240 168.548, 310.187 168.297 C 303.650 168.116, 299.037 168.512, 296 169.514 M 195.400 207.400 C 192.405 210.395, 192 211.420, 192 216 C 192 220.580, 192.405 221.605, 195.400 224.600 C 198.395 227.595, 199.420 228, 204 228 C 211.543 228, 216 223.543, 216 216 C 216 211.420, 215.595 210.395, 212.600 207.400 C 209.605 204.405, 208.580 204, 204 204 C 199.420 204, 198.395 204.405, 195.400 207.400 M 299.400 207.400 C 296.405 210.395, 296 211.420, 296 216 C 296 220.580, 296.405 221.605, 299.400 224.600 C 302.395 227.595, 303.420 228, 308 228 C 312.580 228, 313.605 227.595, 316.600 224.600 C 319.595 221.605, 320 220.580, 320 216 C 320 211.420, 319.595 210.395, 316.600 207.400 C 313.605 204.405, 312.580 204, 308 204 C 303.420 204, 302.395 204.405, 299.400 207.400 M 244.667 256.667 C 244.300 257.033, 244 258.547, 244 260.031 C 244 262.048, 245.006 263.425, 247.989 265.492 C 251.362 267.830, 252.723 268.185, 256.807 267.793 C 262.164 267.278, 268 263.680, 268 260.894 C 268 255.604, 264.052 254.423, 258.960 258.188 L 256 260.376 253.040 258.188 C 250.168 256.064, 246.022 255.311, 244.667 256.667 M 228.607 289.582 C 227.219 293.199, 228.088 294.967, 232.536 297.574 C 246.606 305.819, 263.762 306.067, 278.274 298.233 C 283.346 295.495, 285.169 292.114, 282.989 289.487 C 281.179 287.306, 279.575 287.607, 271.371 291.661 C 264.976 294.822, 262.971 295.332, 256.715 295.387 C 249.186 295.453, 242.011 293.454, 236.846 289.851 C 233.594 287.583, 229.426 287.447, 228.607 289.582 M 250.158 370.901 C 253.270 371.236, 258.670 371.238, 262.158 370.907 C 266.964 370.451, 265.594 370.304, 256.500 370.300 C 248.153 370.296, 246.223 370.479, 250.158 370.901 M 363.399 417.596 C 349.613 422.335, 343.655 440.741, 351.923 453.051 C 361.640 467.519, 382.360 467.519, 392.077 453.051 C 397.165 445.475, 397.165 434.525, 392.077 426.949 C 389.195 422.657, 381.978 417.074, 379.100 416.908 C 371.043 416.444, 366.121 416.660, 363.399 417.596 M 116.198 442.929 C 116.479 464.269, 116.643 466.050, 118.562 468.618 C 122.482 473.863, 125.587 475.411, 133.032 475.832 L 140 476.226 140 472.113 L 140 468 135.547 468 C 129.956 468, 126.537 466.474, 125.110 463.343 C 124.412 461.811, 124 453.313, 124 440.453 L 124 420 119.948 420 L 115.895 420 116.198 442.929 M 196 440.453 C 196 453.313, 195.588 461.811, 194.890 463.343 C 193.344 466.736, 189.968 468, 182.453 468 L 176 468 176 472.099 L 176 476.199 184.928 475.849 C 194.794 475.463, 197.552 474.178, 201.750 468.010 C 203.918 464.825, 204 463.886, 204 442.352 L 204 420 200 420 L 196 420 196 440.453 M 363.284 426.093 C 353.340 432.462, 353.414 447.767, 363.418 453.950 C 370.656 458.423, 381.458 455.849, 385.950 448.582 C 390.423 441.344, 387.849 430.542, 380.582 426.050 C 376.066 423.260, 367.676 423.280, 363.284 426.093" stroke="none" fill="#edd8cd" fill-rule="evenodd"/></svg>