<svg xmlns="http://www.w3.org/2000/svg" width="512" height="512" viewBox="0 0 512 512" version="1.1"><path d="M 226.280 102.736 C 228.909 102.943, 232.959 102.940, 235.280 102.731 C 237.601 102.521, 235.450 102.352, 230.500 102.355 C 225.550 102.358, 223.651 102.530, 226.280 102.736 M 277.280 102.736 C 279.909 102.943, 283.959 102.940, 286.280 102.731 C 288.601 102.521, 286.450 102.352, 281.500 102.355 C 276.550 102.358, 274.651 102.530, 277.280 102.736 M 153.415 129 C 153.415 139.175, 153.564 143.338, 153.745 138.250 C 153.927 133.162, 153.927 124.837, 153.745 119.750 C 153.564 114.662, 153.415 118.825, 153.415 129 M 358.415 129 C 358.415 139.175, 358.564 143.338, 358.745 138.250 C 358.927 133.162, 358.927 124.837, 358.745 119.750 C 358.564 114.662, 358.415 118.825, 358.415 129 M 153.370 222 C 153.370 227.775, 153.535 230.137, 153.737 227.250 C 153.939 224.363, 153.939 219.637, 153.737 216.750 C 153.535 213.863, 153.370 216.225, 153.370 222 M 358.370 222 C 358.370 227.775, 358.535 230.137, 358.737 227.250 C 358.939 224.363, 358.939 219.637, 358.737 216.750 C 358.535 213.863, 358.370 216.225, 358.370 222 M 21.500 231.208 C 16.896 233.848, 17.065 229.259, 17.032 352.250 L 17 469 68 469 L 119 469 119 349.500 L 119 230 71.250 230.030 C 37.217 230.052, 22.925 230.390, 21.500 231.208 M 393 349.500 L 393 469 444 469 L 495 469 494.968 352.250 C 494.944 262.051, 494.659 235.139, 493.718 233.913 C 490.799 230.111, 489.286 230, 440.566 230 L 393 230 393 349.500 M 56.357 264.992 C 51.923 266.781, 51 269.676, 51 281.799 C 51 293.016, 51.036 293.189, 53.923 296.077 C 56.787 298.941, 57.061 299, 67.473 299 C 83.899 299, 86 297.016, 86 281.500 C 86 266.146, 83.784 263.963, 68.300 264.063 C 62.910 264.098, 57.536 264.516, 56.357 264.992 M 431.303 265.154 C 427.631 267, 426 271.951, 426 281.252 C 426 297.042, 428.044 299, 444.527 299 C 454.939 299, 455.213 298.941, 458.077 296.077 C 460.969 293.184, 461 293.033, 461 281.633 C 461 270.899, 460.835 269.920, 458.589 267.306 C 456.237 264.569, 455.900 264.494, 444.839 264.274 C 438.085 264.140, 432.612 264.495, 431.303 265.154 M 208.750 281.750 C 234.737 281.898, 277.262 281.898, 303.250 281.750 C 329.237 281.601, 307.975 281.480, 256 281.480 C 204.025 281.480, 182.762 281.601, 208.750 281.750 M 153.437 316 C 153.437 330.575, 153.577 336.538, 153.747 329.250 C 153.918 321.962, 153.918 310.038, 153.747 302.750 C 153.577 295.462, 153.437 301.425, 153.437 316 M 358.437 316 C 358.437 330.575, 358.577 336.538, 358.747 329.250 C 358.918 321.962, 358.918 310.038, 358.747 302.750 C 358.577 295.462, 358.437 301.425, 358.437 316 M 53.455 335.455 C 51.143 337.766, 51 338.557, 51 349.020 C 51 366.059, 51.833 366.924, 68.295 366.968 C 79.418 366.998, 80.227 366.864, 82.479 364.612 C 85.522 361.569, 86.356 357.008, 85.802 346.447 C 85.428 339.320, 84.994 337.622, 83.005 335.506 C 80.739 333.093, 80.190 333, 68.280 333 C 56.479 333, 55.796 333.113, 53.455 335.455 M 428.924 335.583 C 426.637 338.020, 426.500 338.842, 426.500 350.170 C 426.500 362.084, 426.521 362.193, 429.306 364.587 C 431.931 366.845, 432.863 366.998, 443.806 366.968 C 460.154 366.924, 461 366.040, 461 349.020 C 461 338.557, 460.857 337.766, 458.545 335.455 C 456.204 333.113, 455.521 333, 443.720 333 C 431.711 333, 431.278 333.076, 428.924 335.583 M 162 409.500 L 162 469 179 469 L 196 469 196 409.500 L 196 350 179 350 L 162 350 162 409.500 M 316 409.500 L 316 469 333 469 L 350 469 350 409.500 L 350 350 333 350 L 316 350 316 409.500 M 54.913 402.282 C 51.743 404.716, 51 407.885, 51 418.980 C 51 429.443, 51.143 430.234, 53.455 432.545 C 55.796 434.887, 56.479 435, 68.280 435 C 80.289 435, 80.722 434.924, 83.076 432.417 C 85.363 429.980, 85.500 429.158, 85.500 417.830 C 85.500 405.916, 85.479 405.807, 82.694 403.413 C 80.069 401.155, 79.137 401.002, 68.194 401.032 C 60.582 401.053, 55.946 401.489, 54.913 402.282 M 429.521 403.388 C 426.507 406.402, 425.699 410.712, 426.146 421.382 C 426.452 428.683, 426.832 430.193, 428.924 432.420 C 431.277 434.924, 431.715 435, 443.720 435 C 455.521 435, 456.204 434.887, 458.545 432.545 C 460.857 430.234, 461 429.443, 461 418.980 C 461 401.941, 460.167 401.076, 443.705 401.032 C 432.582 401.002, 431.773 401.136, 429.521 403.388" stroke="none" fill="#cad0d7" fill-rule="evenodd"/><path d="M 226.280 102.736 C 228.909 102.943, 232.959 102.940, 235.280 102.731 C 237.601 102.521, 235.450 102.352, 230.500 102.355 C 225.550 102.358, 223.651 102.530, 226.280 102.736 M 277.280 102.736 C 279.909 102.943, 283.959 102.940, 286.280 102.731 C 288.601 102.521, 286.450 102.352, 281.500 102.355 C 276.550 102.358, 274.651 102.530, 277.280 102.736 M 153.415 129 C 153.415 139.175, 153.564 143.338, 153.745 138.250 C 153.927 133.162, 153.927 124.837, 153.745 119.750 C 153.564 114.662, 153.415 118.825, 153.415 129 M 358.415 129 C 358.415 139.175, 358.564 143.338, 358.745 138.250 C 358.927 133.162, 358.927 124.837, 358.745 119.750 C 358.564 114.662, 358.415 118.825, 358.415 129 M 153.370 222 C 153.370 227.775, 153.535 230.137, 153.737 227.250 C 153.939 224.363, 153.939 219.637, 153.737 216.750 C 153.535 213.863, 153.370 216.225, 153.370 222 M 358.370 222 C 358.370 227.775, 358.535 230.137, 358.737 227.250 C 358.939 224.363, 358.939 219.637, 358.737 216.750 C 358.535 213.863, 358.370 216.225, 358.370 222 M 21.500 231.208 C 16.896 233.848, 17.065 229.259, 17.032 352.250 L 17 469 68 469 L 119 469 119 349.500 L 119 230 71.250 230.030 C 37.217 230.052, 22.925 230.390, 21.500 231.208 M 393 349.500 L 393 469 444 469 L 495 469 494.968 352.250 C 494.944 262.051, 494.659 235.139, 493.718 233.913 C 490.799 230.111, 489.286 230, 440.566 230 L 393 230 393 349.500 M 56.357 264.992 C 51.923 266.781, 51 269.676, 51 281.799 C 51 293.016, 51.036 293.189, 53.923 296.077 C 56.787 298.941, 57.061 299, 67.473 299 C 83.899 299, 86 297.016, 86 281.500 C 86 266.146, 83.784 263.963, 68.300 264.063 C 62.910 264.098, 57.536 264.516, 56.357 264.992 M 431.303 265.154 C 427.631 267, 426 271.951, 426 281.252 C 426 297.042, 428.044 299, 444.527 299 C 454.939 299, 455.213 298.941, 458.077 296.077 C 460.969 293.184, 461 293.033, 461 281.633 C 461 270.899, 460.835 269.920, 458.589 267.306 C 456.237 264.569, 455.900 264.494, 444.839 264.274 C 438.085 264.140, 432.612 264.495, 431.303 265.154 M 208.750 281.750 C 234.737 281.898, 277.262 281.898, 303.250 281.750 C 329.237 281.601, 307.975 281.480, 256 281.480 C 204.025 281.480, 182.762 281.601, 208.750 281.750 M 153.437 316 C 153.437 330.575, 153.577 336.538, 153.747 329.250 C 153.918 321.962, 153.918 310.038, 153.747 302.750 C 153.577 295.462, 153.437 301.425, 153.437 316 M 358.437 316 C 358.437 330.575, 358.577 336.538, 358.747 329.250 C 358.918 321.962, 358.918 310.038, 358.747 302.750 C 358.577 295.462, 358.437 301.425, 358.437 316 M 53.455 335.455 C 51.143 337.766, 51 338.557, 51 349.020 C 51 366.059, 51.833 366.924, 68.295 366.968 C 79.418 366.998, 80.227 366.864, 82.479 364.612 C 85.522 361.569, 86.356 357.008, 85.802 346.447 C 85.428 339.320, 84.994 337.622, 83.005 335.506 C 80.739 333.093, 80.190 333, 68.280 333 C 56.479 333, 55.796 333.113, 53.455 335.455 M 428.924 335.583 C 426.637 338.020, 426.500 338.842, 426.500 350.170 C 426.500 362.084, 426.521 362.193, 429.306 364.587 C 431.931 366.845, 432.863 366.998, 443.806 366.968 C 460.154 366.924, 461 366.040, 461 349.020 C 461 338.557, 460.857 337.766, 458.545 335.455 C 456.204 333.113, 455.521 333, 443.720 333 C 431.711 333, 431.278 333.076, 428.924 335.583 M 162 409.500 L 162 469 179 469 L 196 469 196 409.500 L 196 350 179 350 L 162 350 162 409.500 M 316 409.500 L 316 469 333 469 L 350 469 350 409.500 L 350 350 333 350 L 316 350 316 409.500 M 54.913 402.282 C 51.743 404.716, 51 407.885, 51 418.980 C 51 429.443, 51.143 430.234, 53.455 432.545 C 55.796 434.887, 56.479 435, 68.280 435 C 80.289 435, 80.722 434.924, 83.076 432.417 C 85.363 429.980, 85.500 429.158, 85.500 417.830 C 85.500 405.916, 85.479 405.807, 82.694 403.413 C 80.069 401.155, 79.137 401.002, 68.194 401.032 C 60.582 401.053, 55.946 401.489, 54.913 402.282 M 429.521 403.388 C 426.507 406.402, 425.699 410.712, 426.146 421.382 C 426.452 428.683, 426.832 430.193, 428.924 432.420 C 431.277 434.924, 431.715 435, 443.720 435 C 455.521 435, 456.204 434.887, 458.545 432.545 C 460.857 430.234, 461 429.443, 461 418.980 C 461 401.941, 460.167 401.076, 443.705 401.032 C 432.582 401.002, 431.773 401.136, 429.521 403.388" stroke="none" fill="#cad0d7" fill-rule="evenodd"/><path d="M 63.287 264.740 C 66.469 264.939, 71.419 264.937, 74.287 264.736 C 77.154 264.535, 74.550 264.372, 68.500 264.374 C 62.450 264.376, 60.104 264.541, 63.287 264.740 M 438.287 264.740 C 441.469 264.939, 446.419 264.937, 449.287 264.736 C 452.154 264.535, 449.550 264.372, 443.500 264.374 C 437.450 264.376, 435.104 264.541, 438.287 264.740 M 85.365 281.500 C 85.368 287, 85.536 289.122, 85.738 286.216 C 85.941 283.311, 85.939 278.811, 85.734 276.216 C 85.528 273.622, 85.363 276, 85.365 281.500 M 426.365 281.500 C 426.368 287, 426.536 289.122, 426.738 286.216 C 426.941 283.311, 426.939 278.811, 426.734 276.216 C 426.528 273.622, 426.363 276, 426.365 281.500 M 156.455 284.455 L 154 286.909 154 315.780 L 154 344.651 156.581 347.076 L 159.161 349.500 256 349.500 L 352.839 349.500 355.419 347.076 L 358 344.651 358 315.780 L 358 286.909 355.545 284.455 L 353.091 282 256 282 L 158.909 282 156.455 284.455 M 426.365 349.500 C 426.368 355, 426.536 357.122, 426.738 354.216 C 426.941 351.311, 426.939 346.811, 426.734 344.216 C 426.528 341.622, 426.363 344, 426.365 349.500 M 85.360 350 C 85.360 355.225, 85.529 357.363, 85.735 354.750 C 85.941 352.137, 85.941 347.863, 85.735 345.250 C 85.529 342.637, 85.360 344.775, 85.360 350 M 85.365 418.500 C 85.368 424, 85.536 426.122, 85.738 423.216 C 85.941 420.311, 85.939 415.811, 85.734 413.216 C 85.528 410.622, 85.363 413, 85.365 418.500 M 426.365 418.500 C 426.368 424, 426.536 426.122, 426.738 423.216 C 426.941 420.311, 426.939 415.811, 426.734 413.216 C 426.528 410.622, 426.363 413, 426.365 418.500" stroke="none" fill="#a9b0bb" fill-rule="evenodd"/><path d="M 226.280 102.736 C 228.909 102.943, 232.959 102.940, 235.280 102.731 C 237.601 102.521, 235.450 102.352, 230.500 102.355 C 225.550 102.358, 223.651 102.530, 226.280 102.736 M 277.280 102.736 C 279.909 102.943, 283.959 102.940, 286.280 102.731 C 288.601 102.521, 286.450 102.352, 281.500 102.355 C 276.550 102.358, 274.651 102.530, 277.280 102.736 M 153.415 129 C 153.415 139.175, 153.564 143.338, 153.745 138.250 C 153.927 133.162, 153.927 124.837, 153.745 119.750 C 153.564 114.662, 153.415 118.825, 153.415 129 M 358.415 129 C 358.415 139.175, 358.564 143.338, 358.745 138.250 C 358.927 133.162, 358.927 124.837, 358.745 119.750 C 358.564 114.662, 358.415 118.825, 358.415 129 M 153.370 222 C 153.370 227.775, 153.535 230.137, 153.737 227.250 C 153.939 224.363, 153.939 219.637, 153.737 216.750 C 153.535 213.863, 153.370 216.225, 153.370 222 M 358.370 222 C 358.370 227.775, 358.535 230.137, 358.737 227.250 C 358.939 224.363, 358.939 219.637, 358.737 216.750 C 358.535 213.863, 358.370 216.225, 358.370 222 M 21.500 231.208 C 16.896 233.848, 17.065 229.259, 17.032 352.250 L 17 469 68 469 L 119 469 119 349.500 L 119 230 71.250 230.030 C 37.217 230.052, 22.925 230.390, 21.500 231.208 M 393 349.500 L 393 469 444 469 L 495 469 494.968 352.250 C 494.944 262.051, 494.659 235.139, 493.718 233.913 C 490.799 230.111, 489.286 230, 440.566 230 L 393 230 393 349.500 M 56.357 264.992 C 51.923 266.781, 51 269.676, 51 281.799 C 51 293.016, 51.036 293.189, 53.923 296.077 C 56.787 298.941, 57.061 299, 67.473 299 C 83.899 299, 86 297.016, 86 281.500 C 86 266.146, 83.784 263.963, 68.300 264.063 C 62.910 264.098, 57.536 264.516, 56.357 264.992 M 431.303 265.154 C 427.631 267, 426 271.951, 426 281.252 C 426 297.042, 428.044 299, 444.527 299 C 454.939 299, 455.213 298.941, 458.077 296.077 C 460.969 293.184, 461 293.033, 461 281.633 C 461 270.899, 460.835 269.920, 458.589 267.306 C 456.237 264.569, 455.900 264.494, 444.839 264.274 C 438.085 264.140, 432.612 264.495, 431.303 265.154 M 208.750 281.750 C 234.737 281.898, 277.262 281.898, 303.250 281.750 C 329.237 281.601, 307.975 281.480, 256 281.480 C 204.025 281.480, 182.762 281.601, 208.750 281.750 M 153.437 316 C 153.437 330.575, 153.577 336.538, 153.747 329.250 C 153.918 321.962, 153.918 310.038, 153.747 302.750 C 153.577 295.462, 153.437 301.425, 153.437 316 M 358.437 316 C 358.437 330.575, 358.577 336.538, 358.747 329.250 C 358.918 321.962, 358.918 310.038, 358.747 302.750 C 358.577 295.462, 358.437 301.425, 358.437 316 M 53.455 335.455 C 51.143 337.766, 51 338.557, 51 349.020 C 51 366.059, 51.833 366.924, 68.295 366.968 C 79.418 366.998, 80.227 366.864, 82.479 364.612 C 85.522 361.569, 86.356 357.008, 85.802 346.447 C 85.428 339.320, 84.994 337.622, 83.005 335.506 C 80.739 333.093, 80.190 333, 68.280 333 C 56.479 333, 55.796 333.113, 53.455 335.455 M 428.924 335.583 C 426.637 338.020, 426.500 338.842, 426.500 350.170 C 426.500 362.084, 426.521 362.193, 429.306 364.587 C 431.931 366.845, 432.863 366.998, 443.806 366.968 C 460.154 366.924, 461 366.040, 461 349.020 C 461 338.557, 460.857 337.766, 458.545 335.455 C 456.204 333.113, 455.521 333, 443.720 333 C 431.711 333, 431.278 333.076, 428.924 335.583 M 162 409.500 L 162 469 179 469 L 196 469 196 409.500 L 196 350 179 350 L 162 350 162 409.500 M 316 409.500 L 316 469 333 469 L 350 469 350 409.500 L 350 350 333 350 L 316 350 316 409.500 M 54.913 402.282 C 51.743 404.716, 51 407.885, 51 418.980 C 51 429.443, 51.143 430.234, 53.455 432.545 C 55.796 434.887, 56.479 435, 68.280 435 C 80.289 435, 80.722 434.924, 83.076 432.417 C 85.363 429.980, 85.500 429.158, 85.500 417.830 C 85.500 405.916, 85.479 405.807, 82.694 403.413 C 80.069 401.155, 79.137 401.002, 68.194 401.032 C 60.582 401.053, 55.946 401.489, 54.913 402.282 M 429.521 403.388 C 426.507 406.402, 425.699 410.712, 426.146 421.382 C 426.452 428.683, 426.832 430.193, 428.924 432.420 C 431.277 434.924, 431.715 435, 443.720 435 C 455.521 435, 456.204 434.887, 458.545 432.545 C 460.857 430.234, 461 429.443, 461 418.980 C 461 401.941, 460.167 401.076, 443.705 401.032 C 432.582 401.002, 431.773 401.136, 429.521 403.388" stroke="none" fill="#cad0d7" fill-rule="evenodd"/><path d="M 230.365 221.500 C 230.368 227, 230.536 229.122, 230.738 226.216 C 230.941 223.311, 230.939 218.811, 230.734 216.216 C 230.528 213.622, 230.363 216, 230.365 221.500 M 281.365 221.500 C 281.368 227, 281.536 229.122, 281.738 226.216 C 281.941 223.311, 281.939 218.811, 281.734 216.216 C 281.528 213.622, 281.363 216, 281.365 221.500 M 196.185 409.250 L 196 469 221.500 469 L 247 469 246.996 450.750 L 246.993 432.500 240.746 429.246 C 227.744 422.471, 215.795 408.974, 206.112 390.122 C 198.414 375.136, 197.663 372.699, 196.983 360.500 C 196.646 354.450, 196.287 376.387, 196.185 409.250 M 315 392.500 C 315 415.875, 314.845 435, 314.657 435 C 314.468 435, 311.691 434.098, 308.487 432.996 C 293.947 427.993, 280.485 415.494, 269.178 396.500 L 265.011 389.500 265.005 429.250 L 265 469 290.500 469 L 316 469 316 409.500 C 316 376.775, 315.775 350, 315.500 350 C 315.225 350, 315 369.125, 315 392.500" stroke="none" fill="#66d4f1" fill-rule="evenodd"/><path d="M 158.500 206.208 C 154.562 208.466, 154.064 210.189, 154.032 221.694 C 154.002 232.112, 154.168 233.083, 156.415 235.694 L 158.829 238.500 175.002 238.500 L 191.175 238.500 193.587 235.694 C 195.822 233.096, 196 232.075, 196 221.867 C 196 211.019, 195.954 210.800, 193.077 207.923 L 190.154 205 175.327 205.030 C 166.060 205.049, 159.750 205.491, 158.500 206.208 M 235.315 205.977 C 231.744 207.465, 231 210.272, 231 222.260 C 231 233.213, 231.099 233.745, 233.581 236.076 C 236.133 238.473, 236.380 238.500, 256 238.500 C 275.620 238.500, 275.867 238.473, 278.419 236.076 C 280.909 233.737, 281 233.237, 281 221.936 C 281 204.708, 282.203 205.555, 257.340 205.284 C 246.428 205.165, 236.517 205.477, 235.315 205.977 M 318.923 207.923 C 316.046 210.800, 316 211.019, 316 221.867 C 316 232.075, 316.178 233.096, 318.413 235.694 L 320.825 238.500 336.998 238.500 L 353.171 238.500 355.585 235.694 C 357.832 233.083, 357.998 232.112, 357.968 221.694 C 357.922 205.401, 357.406 205, 336.489 205 L 321.846 205 318.923 207.923 M 55.229 265.669 C 52.349 266.828, 51 271.877, 51 281.500 C 51 297.241, 53.601 299.527, 70.746 298.856 C 78.726 298.544, 80.158 298.203, 82.421 296.076 C 84.908 293.738, 85 293.233, 85 281.961 C 85 271.647, 84.756 269.959, 82.927 267.635 C 80.884 265.037, 80.683 265.001, 68.677 265.079 C 61.980 265.122, 55.928 265.388, 55.229 265.669 M 429.073 267.635 C 427.244 269.959, 427 271.647, 427 281.961 C 427 293.233, 427.092 293.738, 429.579 296.076 C 431.842 298.203, 433.274 298.544, 441.254 298.856 C 458.399 299.527, 461 297.241, 461 281.500 C 461 271.530, 459.661 266.851, 456.455 265.621 C 455.565 265.280, 449.506 265, 442.991 265 C 431.385 265, 431.103 265.053, 429.073 267.635 M 53.837 336.009 L 50.828 339.018 51.164 350.598 C 51.491 361.863, 51.576 362.243, 54.306 364.589 C 56.885 366.806, 57.957 367, 67.605 367 C 78.496 367, 83.115 365.748, 84.379 362.455 C 84.720 361.565, 85 355.678, 85 349.373 C 85 338.535, 84.866 337.775, 82.545 335.455 C 80.221 333.130, 79.475 333, 68.469 333 C 56.880 333, 56.837 333.009, 53.837 336.009 M 429.455 335.455 C 427.134 337.775, 427 338.535, 427 349.373 C 427 355.678, 427.280 361.565, 427.621 362.455 C 428.885 365.748, 433.504 367, 444.395 367 C 454.046 367, 455.114 366.806, 457.694 364.587 C 460.483 362.188, 460.500 362.098, 460.500 350 C 460.500 337.902, 460.483 337.812, 457.694 335.413 C 455.080 333.165, 454.103 333, 443.399 333 C 432.533 333, 431.776 333.133, 429.455 335.455 M 197.001 359.750 C 197.001 370.890, 198.084 374.476, 206.245 390.375 C 215.786 408.962, 227.805 422.503, 240.746 429.246 L 246.993 432.500 246.996 450.750 L 247 469 256 469 L 265 469 265.005 429.250 L 265.011 389.500 269.178 396.500 C 280.485 415.494, 293.947 427.993, 308.487 432.996 C 311.691 434.098, 314.468 435, 314.657 435 C 314.845 435, 315 415.875, 315 392.500 L 315 350 256 350 L 197 350 197.001 359.750 M 54.306 403.411 C 51.576 405.757, 51.491 406.137, 51.164 417.402 L 50.828 428.982 53.837 431.991 C 56.837 434.991, 56.880 435, 68.469 435 C 79.475 435, 80.221 434.870, 82.545 432.545 C 84.866 430.225, 85 429.465, 85 418.627 C 85 412.322, 84.720 406.435, 84.379 405.545 C 83.115 402.252, 78.496 401, 67.605 401 C 57.957 401, 56.885 401.194, 54.306 403.411 M 431.500 402.155 C 427.455 404.367, 427 405.994, 427 418.237 C 427 429.489, 427.125 430.215, 429.455 432.545 C 431.776 434.867, 432.533 435, 443.399 435 C 454.103 435, 455.080 434.835, 457.694 432.587 C 460.483 430.188, 460.500 430.098, 460.500 418 C 460.500 405.902, 460.483 405.812, 457.694 403.413 C 455.101 401.182, 454.080 401.002, 444.194 401.030 C 438.312 401.047, 432.600 401.553, 431.500 402.155" stroke="none" fill="#4fc0e8" fill-rule="evenodd"/><path d="M 163.500 9.881 C 158.742 12.066, 156.610 14.296, 154.538 19.254 C 153.233 22.378, 153.016 29.117, 153.102 63.718 C 153.159 86.148, 153.496 115.075, 153.852 128 C 154.478 150.693, 154.582 151.616, 156.901 154.867 C 158.222 156.718, 161.147 159.071, 163.401 160.095 C 167.299 161.865, 171.829 161.956, 256 161.956 C 340.171 161.956, 344.701 161.865, 348.599 160.095 C 350.853 159.071, 353.778 156.718, 355.099 154.867 C 357.418 151.616, 357.522 150.693, 358.148 128 C 358.504 115.075, 358.841 86.148, 358.898 63.718 C 358.984 29.117, 358.767 22.378, 357.462 19.254 C 355.390 14.296, 353.258 12.066, 348.500 9.881 C 344.714 8.142, 339.761 8.044, 256 8.044 C 172.239 8.044, 167.286 8.142, 163.500 9.881 M 241.455 45.455 C 239.177 47.732, 239 48.628, 239 57.864 L 239 67.818 228.525 68.159 C 214.135 68.628, 213.620 69.155, 213.165 83.910 C 212.643 100.808, 214.704 102.983, 231.250 102.994 L 239 103 239 113.048 C 239 122.629, 239.123 123.209, 241.646 125.548 C 244.142 127.861, 244.958 128, 256.010 128 C 267.337 128, 267.815 127.912, 270.364 125.364 C 272.856 122.872, 273 122.188, 273 112.864 L 273 103 280.750 102.994 C 297.296 102.983, 299.357 100.808, 298.835 83.910 C 298.380 69.155, 297.865 68.628, 283.475 68.159 L 273 67.818 273 57.864 C 273 48.628, 272.823 47.732, 270.545 45.455 C 268.210 43.119, 267.504 43, 256 43 C 244.496 43, 243.790 43.119, 241.455 45.455" stroke="none" fill="#f76c82" fill-rule="evenodd"/><path d="M 10.839 472.007 L 7.833 475.013 8.166 486.982 C 8.470 497.865, 8.706 499.156, 10.778 501.225 L 13.056 503.500 256 503.500 L 498.944 503.500 501.222 501.225 C 503.294 499.156, 503.530 497.865, 503.834 486.982 L 504.167 475.013 501.161 472.007 L 498.154 469 256 469 L 13.846 469 10.839 472.007" stroke="none" fill="#559eba" fill-rule="evenodd"/><path d="M 241.455 45.455 C 239.174 47.735, 239 48.622, 239 57.955 L 239 68 229.950 68 C 214.826 68, 212.479 70.758, 213.144 87.746 C 213.456 95.726, 213.797 97.158, 215.924 99.421 C 218.226 101.870, 218.869 102, 228.674 102 L 239 102 239 112.077 C 239 121.881, 239.079 122.233, 241.923 125.077 C 244.804 127.958, 245.005 128, 256 128 C 266.995 128, 267.196 127.958, 270.077 125.077 C 272.921 122.233, 273 121.881, 273 112.077 L 273 102 283.326 102 C 293.131 102, 293.774 101.870, 296.076 99.421 C 298.203 97.158, 298.544 95.726, 298.856 87.746 C 299.520 70.784, 297.163 68, 282.141 68 L 273.182 68 272.841 57.410 C 272.383 43.178, 272.173 43, 255.844 43 C 244.506 43, 243.786 43.123, 241.455 45.455 M 123.229 111.669 C 122.530 111.951, 121.292 113.468, 120.479 115.041 C 119.190 117.533, 119 140.472, 119 293.450 L 119 469 140.500 469 L 162 469 162 409.719 L 162 350.438 158.983 349.299 C 153.343 347.171, 152.844 344.122, 153.191 313.912 L 153.500 287.042 156.273 284.271 L 159.045 281.500 256 281.500 L 352.955 281.500 355.727 284.271 L 358.500 287.042 358.809 313.912 C 359.156 344.122, 358.657 347.171, 353.017 349.299 L 350 350.438 350 409.719 L 350 469 371.500 469 L 393 469 393 293.450 C 393 106.117, 393.183 113.435, 388.455 111.621 C 387.565 111.280, 380.573 111, 372.918 111 L 359 111 358.994 128.250 C 358.988 147.022, 358.264 151.344, 354.342 156.005 C 349.003 162.351, 354.759 162, 256 162 C 157.241 162, 162.997 162.351, 157.658 156.005 C 153.736 151.344, 153.012 147.022, 153.006 128.250 L 153 111 138.750 111.079 C 130.912 111.122, 123.928 111.388, 123.229 111.669 M 155.924 207.581 C 153.636 210.016, 153.500 210.837, 153.500 222.167 C 153.500 234.082, 153.521 234.191, 156.306 236.587 C 159.019 238.920, 159.640 239, 175.101 239 C 190.745 239, 191.144 238.947, 193.545 236.545 C 195.887 234.204, 196 233.521, 196 221.720 C 196 204.483, 196.654 205, 174.860 205 C 158.403 205, 158.341 205.009, 155.924 207.581 M 233.913 206.282 C 230.772 208.694, 230 211.895, 230 222.511 C 230 232.941, 230.059 233.212, 232.923 236.077 L 235.846 239 256 239 L 276.154 239 279.077 236.077 C 281.953 233.200, 282 232.978, 282 222.154 C 282 211.778, 281.853 210.979, 279.411 208.077 L 276.822 205 256.161 205.032 C 241.498 205.054, 235.039 205.417, 233.913 206.282 M 318.174 207.314 C 316.187 209.430, 316 210.678, 316 221.860 C 316 233.513, 316.116 234.207, 318.455 236.545 C 320.856 238.947, 321.255 239, 336.899 239 C 352.360 239, 352.981 238.920, 355.694 236.587 C 358.479 234.191, 358.500 234.082, 358.500 222.167 C 358.500 210.837, 358.364 210.016, 356.076 207.581 C 353.658 205.007, 353.607 205, 337 205 C 320.887 205, 320.278 205.075, 318.174 207.314" stroke="none" fill="#d3dbdc" fill-rule="evenodd"/></svg>