<svg xmlns="http://www.w3.org/2000/svg" width="512" height="512" viewBox="0 0 512 512" version="1.1"><path d="M 141.307 164.467 C 139.354 165.316, 137.369 167.340, 136.194 169.678 C 133.556 174.928, 59.763 361.103, 60.172 361.477 C 60.733 361.991, 144.208 395, 144.945 395 C 145.328 395, 148.276 388.363, 151.495 380.250 C 154.715 372.137, 157.926 364.100, 158.630 362.389 L 159.911 359.278 151.705 356.077 C 140.599 351.744, 139 350.596, 139 346.956 C 139 344.725, 139.642 343.664, 141.510 342.814 C 143.648 341.840, 145.391 342.213, 153.279 345.335 C 158.372 347.351, 162.862 349, 163.256 349 C 164.841 349, 171.445 330.031, 170.259 328.883 C 169.841 328.480, 165.900 326.726, 161.500 324.987 C 151.878 321.184, 151 320.523, 151 317.078 C 151 311.051, 154.360 310.681, 166.057 315.422 C 170.701 317.304, 174.798 318.542, 175.161 318.172 C 175.959 317.361, 183.150 298.782, 182.768 298.519 C 182.621 298.417, 176.425 295.983, 169 293.109 C 153.100 286.956, 151 285.734, 151 282.632 C 151 280.254, 153.765 277, 155.786 277 C 156.407 277, 163.710 279.659, 172.016 282.909 C 186.874 288.723, 187.132 288.784, 187.955 286.659 C 188.415 285.472, 190.206 280.955, 191.936 276.623 C 193.665 272.291, 194.949 268.653, 194.790 268.539 C 194.630 268.424, 190.675 266.834, 186 265.005 C 181.325 263.175, 176.938 261.245, 176.250 260.717 C 174.225 259.159, 174.750 254.288, 177.122 252.627 C 179.051 251.276, 179.984 251.419, 187.372 254.200 C 200.234 259.041, 198.970 259.510, 203.224 248.308 C 205.272 242.914, 206.622 238.371, 206.224 238.213 C 187.170 230.658, 186.067 229.854, 187.414 224.488 C 188.273 221.064, 191.061 220.657, 197.135 223.068 C 200.086 224.239, 204.583 226.025, 207.129 227.036 L 211.757 228.875 216.884 215.688 C 219.704 208.434, 222.007 201.375, 222.002 200 C 221.988 196.265, 218.441 191.158, 214.757 189.570 C 212.966 188.798, 200.250 183.788, 186.500 178.436 C 172.750 173.085, 158.756 167.422, 155.403 165.853 C 148.626 162.682, 146.005 162.424, 141.307 164.467 M 428.500 300.053 C 412.047 302.878, 400.348 311.743, 393.196 326.803 C 389.948 333.641, 389.509 335.528, 389.164 344.127 C 388.951 349.435, 389.179 354.497, 389.670 355.375 C 390.606 357.048, 388.430 358.172, 451.791 323.316 C 471.043 312.726, 470.534 313.540, 461.603 307.612 C 452.109 301.310, 438.833 298.279, 428.500 300.053 M 441.238 356.754 L 401.976 378.365 404.738 381.250 C 408.773 385.465, 420.473 390.888, 428.345 392.193 C 455.937 396.765, 482.325 374.039, 481.900 346.068 C 481.708 333.377, 485.537 332.371, 441.238 356.754 M 435.034 469.582 L 435.126 495.165 457.313 494.832 C 478.105 494.521, 479.795 494.355, 484.186 492.192 C 494.625 487.050, 500.401 475.807, 498.155 465 C 495.948 454.381, 488.036 446.717, 477.500 444.993 C 474.200 444.453, 463.274 444.009, 453.221 444.006 L 434.942 444 435.034 469.582" stroke="none" fill="#bddeff" fill-rule="evenodd"/><path d="M 141.307 164.467 C 139.354 165.316, 137.369 167.340, 136.194 169.678 C 133.556 174.928, 59.763 361.103, 60.172 361.477 C 60.733 361.991, 144.208 395, 144.945 395 C 145.328 395, 148.276 388.363, 151.495 380.250 C 154.715 372.137, 157.926 364.100, 158.630 362.389 L 159.911 359.278 151.705 356.077 C 140.599 351.744, 139 350.596, 139 346.956 C 139 344.725, 139.642 343.664, 141.510 342.814 C 143.648 341.840, 145.391 342.213, 153.279 345.335 C 158.372 347.351, 162.862 349, 163.256 349 C 164.841 349, 171.445 330.031, 170.259 328.883 C 169.841 328.480, 165.900 326.726, 161.500 324.987 C 151.878 321.184, 151 320.523, 151 317.078 C 151 311.051, 154.360 310.681, 166.057 315.422 C 170.701 317.304, 174.798 318.542, 175.161 318.172 C 175.959 317.361, 183.150 298.782, 182.768 298.519 C 182.621 298.417, 176.425 295.983, 169 293.109 C 153.100 286.956, 151 285.734, 151 282.632 C 151 280.254, 153.765 277, 155.786 277 C 156.407 277, 163.710 279.659, 172.016 282.909 C 186.874 288.723, 187.132 288.784, 187.955 286.659 C 188.415 285.472, 190.206 280.955, 191.936 276.623 C 193.665 272.291, 194.949 268.653, 194.790 268.539 C 194.630 268.424, 190.675 266.834, 186 265.005 C 181.325 263.175, 176.938 261.245, 176.250 260.717 C 174.225 259.159, 174.750 254.288, 177.122 252.627 C 179.051 251.276, 179.984 251.419, 187.372 254.200 C 200.234 259.041, 198.970 259.510, 203.224 248.308 C 205.272 242.914, 206.622 238.371, 206.224 238.213 C 187.170 230.658, 186.067 229.854, 187.414 224.488 C 188.273 221.064, 191.061 220.657, 197.135 223.068 C 200.086 224.239, 204.583 226.025, 207.129 227.036 L 211.757 228.875 216.884 215.688 C 219.704 208.434, 222.007 201.375, 222.002 200 C 221.988 196.265, 218.441 191.158, 214.757 189.570 C 212.966 188.798, 200.250 183.788, 186.500 178.436 C 172.750 173.085, 158.756 167.422, 155.403 165.853 C 148.626 162.682, 146.005 162.424, 141.307 164.467 M 428.500 300.053 C 412.047 302.878, 400.348 311.743, 393.196 326.803 C 389.948 333.641, 389.509 335.528, 389.164 344.127 C 388.951 349.435, 389.179 354.497, 389.670 355.375 C 390.606 357.048, 388.430 358.172, 451.791 323.316 C 471.043 312.726, 470.534 313.540, 461.603 307.612 C 452.109 301.310, 438.833 298.279, 428.500 300.053 M 441.238 356.754 L 401.976 378.365 404.738 381.250 C 408.773 385.465, 420.473 390.888, 428.345 392.193 C 455.937 396.765, 482.325 374.039, 481.900 346.068 C 481.708 333.377, 485.537 332.371, 441.238 356.754 M 435.034 469.582 L 435.126 495.165 457.313 494.832 C 478.105 494.521, 479.795 494.355, 484.186 492.192 C 494.625 487.050, 500.401 475.807, 498.155 465 C 495.948 454.381, 488.036 446.717, 477.500 444.993 C 474.200 444.453, 463.274 444.009, 453.221 444.006 L 434.942 444 435.034 469.582" stroke="none" fill="#bddeff" fill-rule="evenodd"/><path d="M 263 359.500 L 263 370 252.500 370 L 242 370 242 384 L 242 398 252.500 398 L 263 398 263 408.500 L 263 419 276.500 419 L 290 419 290 408.500 L 290 398 300.500 398 L 311 398 311 384 L 311 370 300.500 370 L 290 370 290 359.500 L 290 349 276.500 349 L 263 349 263 359.500" stroke="none" fill="#f74f73" fill-rule="evenodd"/><path d="M 208.025 237.433 C 207.517 238.771, 204.865 245.409, 202.132 252.183 C 199.399 258.957, 190.939 280.025, 183.331 299 L 169.500 333.500 169.242 366.500 C 169.085 386.623, 169.340 398.952, 169.896 398.097 C 170.397 397.325, 179.513 374.717, 190.154 347.856 L 209.500 299.018 274.790 299.009 L 340.081 299 339.790 290.750 L 339.500 282.500 278.250 282.242 C 244.563 282.101, 217 281.806, 217 281.588 C 217 281.256, 233.074 240.044, 234.684 236.250 C 235.092 235.287, 232.204 235, 222.082 235 C 209.092 235, 208.941 235.026, 208.025 237.433" stroke="none" fill="#ef8e4d" fill-rule="evenodd"/><path d="M 60.237 23.214 C 59.639 23.935, 57.744 30.093, 56.026 36.899 C 52.408 51.227, 50.615 55.127, 45.335 60.144 C 41.024 64.240, 36.083 66.902, 28 69.481 C 21.445 71.572, 19.580 73.102, 20.407 75.707 C 20.850 77.104, 23.549 78.429, 30.166 80.497 C 46.803 85.698, 51.590 91.239, 56.116 110.533 C 59.705 125.835, 59.996 126.500, 63.109 126.500 C 65.348 126.500, 65.724 125.611, 69.033 112.500 C 73.109 96.346, 74.272 93.836, 80.173 88.441 C 84.764 84.245, 88.800 82.234, 98.500 79.309 C 103.734 77.731, 104.500 77.184, 104.500 75.020 C 104.500 72.811, 103.560 72.202, 95.936 69.466 C 85.646 65.774, 81.032 63.049, 77.763 58.734 C 73.583 53.219, 72.684 50.928, 69.038 36.500 C 65.989 24.435, 65.212 22.459, 63.412 22.202 C 62.264 22.038, 60.836 22.493, 60.237 23.214 M 444.223 85.557 C 441.583 87.405, 441.239 92.096, 443.571 94.429 C 445.904 96.761, 450.595 96.417, 452.443 93.777 C 454.538 90.786, 454.403 88.403, 452 86 C 449.597 83.597, 447.214 83.462, 444.223 85.557 M 446.021 134.250 C 445.507 135.488, 443.685 141.900, 441.973 148.500 C 437.141 167.128, 432.434 172.855, 417.500 178.281 C 413.650 179.679, 409.688 181.146, 408.696 181.539 C 407.467 182.027, 406.989 183.090, 407.196 184.874 C 407.465 187.194, 408.409 187.786, 415.500 190.082 C 426.422 193.618, 429.025 195.122, 434.212 200.891 C 439.021 206.240, 440.353 209.673, 444.084 226.336 C 445.478 232.560, 446.835 236.383, 447.779 236.745 C 450.972 237.971, 452.467 235.279, 455.180 223.428 C 460.270 201.192, 464.165 196.312, 481.493 190.456 C 488.563 188.066, 490.564 186.972, 490.798 185.368 C 491.203 182.594, 489.832 181.706, 480.326 178.577 C 470.762 175.429, 464.167 170.265, 460.590 163.123 C 459.316 160.581, 456.999 153.100, 455.440 146.500 C 453.882 139.900, 452.190 133.938, 451.681 133.250 C 450.198 131.247, 447.038 131.806, 446.021 134.250 M 233.679 238.725 C 230.519 245.970, 216.949 281.283, 217.224 281.549 C 217.376 281.696, 248.550 281.953, 286.500 282.119 L 355.500 282.420 355.500 265.460 C 355.500 246.283, 354.653 243.126, 348.188 238.194 L 344.657 235.500 289.992 235.225 L 235.326 234.951 233.679 238.725 M 189.207 350.168 L 168.913 401.310 169.207 439.905 L 169.500 478.500 172.254 483.185 C 175.488 488.687, 179.397 491.713, 185.731 493.620 C 192.472 495.648, 316.528 495.648, 323.269 493.620 C 329.603 491.713, 333.512 488.687, 336.746 483.185 C 339.408 478.657, 339.511 477.938, 339.834 461.750 L 340.169 445 282.334 444.978 C 216.579 444.953, 218.818 445.215, 213.316 436.902 L 210.500 432.647 210.500 384.573 C 210.500 330.245, 210.338 331.452, 218.332 326.161 L 222.352 323.500 281.176 323.227 L 340 322.954 340 310.977 L 340 299 274.750 299.013 L 209.500 299.027 189.207 350.168 M 262.374 359.500 C 262.376 365.550, 262.541 367.896, 262.740 364.713 C 262.939 361.531, 262.937 356.581, 262.736 353.713 C 262.535 350.846, 262.372 353.450, 262.374 359.500 M 290.370 360 C 290.370 365.775, 290.535 368.137, 290.737 365.250 C 290.939 362.363, 290.939 357.637, 290.737 354.750 C 290.535 351.863, 290.370 354.225, 290.370 360 M 262.374 408.500 C 262.376 414.550, 262.541 416.896, 262.740 413.713 C 262.939 410.531, 262.937 405.581, 262.736 402.713 C 262.535 399.846, 262.372 402.450, 262.374 408.500 M 290.374 408.500 C 290.376 414.550, 290.541 416.896, 290.740 413.713 C 290.939 410.531, 290.937 405.581, 290.736 402.713 C 290.535 399.846, 290.372 402.450, 290.374 408.500" stroke="none" fill="#ffbe71" fill-rule="evenodd"/><path d="M 240.663 18.257 C 239.324 19.236, 224.169 56.270, 199.770 118.185 C 199.621 118.561, 197.616 118.364, 195.314 117.745 C 188.755 115.984, 186.955 117.359, 183.172 127.025 C 181.395 131.563, 180.068 135.360, 180.221 135.464 C 180.374 135.568, 187.700 138.475, 196.500 141.924 C 205.300 145.373, 213.136 148.453, 213.914 148.767 C 214.770 149.114, 215.063 148.912, 214.658 148.255 C 214.289 147.659, 215.283 143.645, 216.867 139.335 C 220.264 130.095, 219.843 127.807, 214.282 125.279 C 212.202 124.333, 210.374 123.495, 210.220 123.417 C 210.067 123.338, 218.729 101.134, 229.470 74.075 C 240.212 47.015, 249 23.804, 249 22.494 C 249 20.212, 245.767 17, 243.469 17 C 242.871 17, 241.609 17.566, 240.663 18.257 M 188.517 222.625 C 187.532 223.611, 187.012 225.478, 187.196 227.370 C 187.480 230.284, 188.095 230.736, 196.500 234.210 C 201.450 236.256, 205.979 237.946, 206.565 237.965 C 207.678 238.002, 211 231.822, 211 229.714 C 211 228.703, 192.982 220.900, 190.821 220.976 C 190.448 220.989, 189.411 221.731, 188.517 222.625 M 177.122 252.627 C 174.750 254.288, 174.225 259.159, 176.250 260.717 C 177.845 261.944, 193.136 268.013, 194.614 268.005 C 195.227 268.002, 196.464 266.072, 197.364 263.717 C 199.391 258.409, 199.390 258.345, 197.250 257.731 C 196.287 257.455, 191.843 255.859, 187.372 254.185 C 179.986 251.418, 179.051 251.276, 177.122 252.627 M 152.655 278.829 C 150.597 281.102, 150.523 284.359, 152.491 285.993 C 153.311 286.673, 160.624 289.839, 168.741 293.028 L 183.500 298.826 185.294 294.258 C 186.281 291.745, 186.731 289.336, 186.294 288.905 C 185.241 287.866, 157.206 277, 155.578 277 C 154.881 277, 153.565 277.823, 152.655 278.829 M 152.200 313.200 C 150.628 314.772, 150.660 319.476, 152.250 320.780 C 153.564 321.857, 171.231 329.160, 171.512 328.742 C 172.815 326.804, 174.900 319.526, 174.301 319.005 C 172.772 317.672, 157.489 311.989, 155.450 311.995 C 154.322 311.998, 152.860 312.540, 152.200 313.200 M 429.679 335.434 C 408.327 347.190, 390.646 357.021, 390.386 357.281 C 388.846 358.820, 398.395 376.447, 401.392 377.597 C 402.054 377.851, 410.223 373.853, 419.547 368.713 C 428.871 363.573, 446.502 353.861, 458.726 347.131 L 480.951 334.894 478.985 329.720 C 477.051 324.628, 470.356 313.972, 469.128 314.029 C 468.783 314.046, 451.031 323.678, 429.679 335.434 M 140.750 343.080 C 138.173 344.581, 138.476 349.615, 141.250 351.406 C 144.809 353.703, 159.188 359.146, 159.877 358.457 C 160.220 358.114, 161.234 355.959, 162.132 353.667 L 163.764 349.500 154.632 345.801 C 144.749 341.797, 143.405 341.534, 140.750 343.080 M 50.357 359.992 C 47.372 361.196, 45.508 364.163, 42.424 372.621 C 39.687 380.123, 39.692 383.549, 42.442 386.299 C 43.980 387.838, 72.854 399.701, 77.005 400.501 C 80.029 401.083, 105.299 411.106, 106 412.001 C 107.114 413.424, 138.500 425.333, 141.135 425.333 C 145.189 425.333, 147.484 422.791, 150.954 414.456 C 156.048 402.219, 154.932 398.694, 144.800 395.020 C 141.335 393.764, 119.426 385.145, 96.113 375.868 C 72.800 366.591, 53.450 359.029, 53.113 359.063 C 52.776 359.098, 51.536 359.516, 50.357 359.992 M 26.500 429.945 C 25.400 430.396, 23.600 431.764, 22.500 432.987 C 20.103 435.651, 12.895 453.237, 13.838 454.121 C 14.540 454.779, 112.569 493.684, 114.822 494.198 C 115.665 494.391, 117.596 490.885, 120.162 484.501 C 124.600 473.459, 124.757 469.499, 120.916 465.411 C 118.923 463.289, 92.647 452, 89.703 452 C 88.125 452, 67.003 443.631, 61.565 440.851 C 54.349 437.162, 32.998 428.999, 30.734 429.063 C 29.505 429.098, 27.600 429.495, 26.500 429.945 M 392.903 445.013 C 384.348 446.460, 377.868 451.619, 374.079 460 C 368.549 472.231, 375.722 488.574, 388.619 493.129 C 392.830 494.617, 434.989 495.181, 434.996 493.750 C 434.998 493.337, 435 481.975, 435 468.500 L 435 444 416.250 444.118 C 405.938 444.182, 395.431 444.585, 392.903 445.013" stroke="none" fill="#80b3ef" fill-rule="evenodd"/><path d="M 141.307 164.467 C 139.354 165.316, 137.369 167.340, 136.194 169.678 C 133.556 174.928, 59.763 361.103, 60.172 361.477 C 60.733 361.991, 144.208 395, 144.945 395 C 145.328 395, 148.276 388.363, 151.495 380.250 C 154.715 372.137, 157.926 364.100, 158.630 362.389 L 159.911 359.278 151.705 356.077 C 140.599 351.744, 139 350.596, 139 346.956 C 139 344.725, 139.642 343.664, 141.510 342.814 C 143.648 341.840, 145.391 342.213, 153.279 345.335 C 158.372 347.351, 162.862 349, 163.256 349 C 164.841 349, 171.445 330.031, 170.259 328.883 C 169.841 328.480, 165.900 326.726, 161.500 324.987 C 151.878 321.184, 151 320.523, 151 317.078 C 151 311.051, 154.360 310.681, 166.057 315.422 C 170.701 317.304, 174.798 318.542, 175.161 318.172 C 175.959 317.361, 183.150 298.782, 182.768 298.519 C 182.621 298.417, 176.425 295.983, 169 293.109 C 153.100 286.956, 151 285.734, 151 282.632 C 151 280.254, 153.765 277, 155.786 277 C 156.407 277, 163.710 279.659, 172.016 282.909 C 186.874 288.723, 187.132 288.784, 187.955 286.659 C 188.415 285.472, 190.206 280.955, 191.936 276.623 C 193.665 272.291, 194.949 268.653, 194.790 268.539 C 194.630 268.424, 190.675 266.834, 186 265.005 C 181.325 263.175, 176.938 261.245, 176.250 260.717 C 174.225 259.159, 174.750 254.288, 177.122 252.627 C 179.051 251.276, 179.984 251.419, 187.372 254.200 C 200.234 259.041, 198.970 259.510, 203.224 248.308 C 205.272 242.914, 206.622 238.371, 206.224 238.213 C 187.170 230.658, 186.067 229.854, 187.414 224.488 C 188.273 221.064, 191.061 220.657, 197.135 223.068 C 200.086 224.239, 204.583 226.025, 207.129 227.036 L 211.757 228.875 216.884 215.688 C 219.704 208.434, 222.007 201.375, 222.002 200 C 221.988 196.265, 218.441 191.158, 214.757 189.570 C 212.966 188.798, 200.250 183.788, 186.500 178.436 C 172.750 173.085, 158.756 167.422, 155.403 165.853 C 148.626 162.682, 146.005 162.424, 141.307 164.467 M 428.500 300.053 C 412.047 302.878, 400.348 311.743, 393.196 326.803 C 389.948 333.641, 389.509 335.528, 389.164 344.127 C 388.951 349.435, 389.179 354.497, 389.670 355.375 C 390.606 357.048, 388.430 358.172, 451.791 323.316 C 471.043 312.726, 470.534 313.540, 461.603 307.612 C 452.109 301.310, 438.833 298.279, 428.500 300.053 M 441.238 356.754 L 401.976 378.365 404.738 381.250 C 408.773 385.465, 420.473 390.888, 428.345 392.193 C 455.937 396.765, 482.325 374.039, 481.900 346.068 C 481.708 333.377, 485.537 332.371, 441.238 356.754 M 435.034 469.582 L 435.126 495.165 457.313 494.832 C 478.105 494.521, 479.795 494.355, 484.186 492.192 C 494.625 487.050, 500.401 475.807, 498.155 465 C 495.948 454.381, 488.036 446.717, 477.500 444.993 C 474.200 444.453, 463.274 444.009, 453.221 444.006 L 434.942 444 435.034 469.582" stroke="none" fill="#bddeff" fill-rule="evenodd"/><path d="M 60.237 23.214 C 59.639 23.935, 57.744 30.093, 56.026 36.899 C 52.408 51.227, 50.615 55.127, 45.335 60.144 C 41.024 64.240, 36.083 66.902, 28 69.481 C 21.445 71.572, 19.580 73.102, 20.407 75.707 C 20.850 77.104, 23.549 78.429, 30.166 80.497 C 46.803 85.698, 51.590 91.239, 56.116 110.533 C 59.705 125.835, 59.996 126.500, 63.109 126.500 C 65.348 126.500, 65.724 125.611, 69.033 112.500 C 73.109 96.346, 74.272 93.836, 80.173 88.441 C 84.764 84.245, 88.800 82.234, 98.500 79.309 C 103.734 77.731, 104.500 77.184, 104.500 75.020 C 104.500 72.811, 103.560 72.202, 95.936 69.466 C 85.646 65.774, 81.032 63.049, 77.763 58.734 C 73.583 53.219, 72.684 50.928, 69.038 36.500 C 65.989 24.435, 65.212 22.459, 63.412 22.202 C 62.264 22.038, 60.836 22.493, 60.237 23.214 M 444.223 85.557 C 441.583 87.405, 441.239 92.096, 443.571 94.429 C 445.904 96.761, 450.595 96.417, 452.443 93.777 C 454.538 90.786, 454.403 88.403, 452 86 C 449.597 83.597, 447.214 83.462, 444.223 85.557 M 446.021 134.250 C 445.507 135.488, 443.685 141.900, 441.973 148.500 C 437.141 167.128, 432.434 172.855, 417.500 178.281 C 413.650 179.679, 409.688 181.146, 408.696 181.539 C 407.467 182.027, 406.989 183.090, 407.196 184.874 C 407.465 187.194, 408.409 187.786, 415.500 190.082 C 426.422 193.618, 429.025 195.122, 434.212 200.891 C 439.021 206.240, 440.353 209.673, 444.084 226.336 C 445.478 232.560, 446.835 236.383, 447.779 236.745 C 450.972 237.971, 452.467 235.279, 455.180 223.428 C 460.270 201.192, 464.165 196.312, 481.493 190.456 C 488.563 188.066, 490.564 186.972, 490.798 185.368 C 491.203 182.594, 489.832 181.706, 480.326 178.577 C 470.762 175.429, 464.167 170.265, 460.590 163.123 C 459.316 160.581, 456.999 153.100, 455.440 146.500 C 453.882 139.900, 452.190 133.938, 451.681 133.250 C 450.198 131.247, 447.038 131.806, 446.021 134.250 M 233.679 238.725 C 230.519 245.970, 216.949 281.283, 217.224 281.549 C 217.376 281.696, 248.550 281.953, 286.500 282.119 L 355.500 282.420 355.500 265.460 C 355.500 246.283, 354.653 243.126, 348.188 238.194 L 344.657 235.500 289.992 235.225 L 235.326 234.951 233.679 238.725 M 189.207 350.168 L 168.913 401.310 169.207 439.905 L 169.500 478.500 172.254 483.185 C 175.488 488.687, 179.397 491.713, 185.731 493.620 C 192.472 495.648, 316.528 495.648, 323.269 493.620 C 329.603 491.713, 333.512 488.687, 336.746 483.185 C 339.408 478.657, 339.511 477.938, 339.834 461.750 L 340.169 445 282.334 444.978 C 216.579 444.953, 218.818 445.215, 213.316 436.902 L 210.500 432.647 210.500 384.573 C 210.500 330.245, 210.338 331.452, 218.332 326.161 L 222.352 323.500 281.176 323.227 L 340 322.954 340 310.977 L 340 299 274.750 299.013 L 209.500 299.027 189.207 350.168 M 262.374 359.500 C 262.376 365.550, 262.541 367.896, 262.740 364.713 C 262.939 361.531, 262.937 356.581, 262.736 353.713 C 262.535 350.846, 262.372 353.450, 262.374 359.500 M 290.370 360 C 290.370 365.775, 290.535 368.137, 290.737 365.250 C 290.939 362.363, 290.939 357.637, 290.737 354.750 C 290.535 351.863, 290.370 354.225, 290.370 360 M 262.374 408.500 C 262.376 414.550, 262.541 416.896, 262.740 413.713 C 262.939 410.531, 262.937 405.581, 262.736 402.713 C 262.535 399.846, 262.372 402.450, 262.374 408.500 M 290.374 408.500 C 290.376 414.550, 290.541 416.896, 290.740 413.713 C 290.939 410.531, 290.937 405.581, 290.736 402.713 C 290.535 399.846, 290.372 402.450, 290.374 408.500" stroke="none" fill="#ffbe71" fill-rule="evenodd"/><path d="M 167.768 134.750 C 166.218 136.509, 154.670 165.004, 155.266 165.599 C 155.534 165.867, 165.811 169.996, 206.109 186.026 L 210.718 187.860 214.519 178.180 C 216.609 172.856, 219.383 166.144, 220.682 163.264 C 222.226 159.845, 222.825 157.151, 222.410 155.499 C 221.776 152.973, 217.664 149, 215.684 149 C 214.122 149, 178.652 134.963, 177.550 133.909 C 175.891 132.322, 169.417 132.878, 167.768 134.750 M 69.581 420.046 C 65.246 430.955, 61.735 440.211, 61.780 440.614 C 61.922 441.902, 89.103 452.301, 89.922 451.381 C 90.889 450.295, 106.209 411.846, 105.797 411.541 C 105.537 411.348, 100.923 409.500, 81.982 402.001 L 77.464 400.212 69.581 420.046" stroke="none" fill="#73a3e6" fill-rule="evenodd"/><path d="M 220.240 325.110 C 215.171 327.619, 212.516 331.058, 211.008 337.071 C 210.250 340.090, 209.992 356.005, 210.198 387.075 L 210.500 432.649 213.316 436.903 C 218.818 445.214, 216.592 444.953, 282.250 444.978 L 340 445 340 384 L 340 323 282.250 323.001 C 225.523 323.002, 224.425 323.039, 220.240 325.110 M 262 359.473 L 262 370 252 370 L 242 370 242 384 L 242 398 252 398 L 262 398 262 408.500 L 262 419 276.500 419 L 291 419 291 408.500 L 291 398 301 398 L 311 398 311 384 L 311 370 301.035 370 L 291.070 370 290.785 359.750 L 290.500 349.500 276.250 349.223 L 262 348.945 262 359.473" stroke="none" fill="#e2d4c2" fill-rule="evenodd"/></svg>