<svg xmlns="http://www.w3.org/2000/svg" width="512" height="512" viewBox="0 0 512 512" version="1.1"><path d="M 230.671 102.427 C 242.486 107.928, 248 117.747, 248 133.288 L 248.001 142.500 253.053 146.851 C 258.675 151.692, 262.520 156.990, 264.558 162.703 C 265.780 166.129, 265.917 164.523, 265.956 146.288 C 266.009 121.914, 264.971 117.841, 256.565 109.435 C 249.973 102.843, 242.769 99.996, 232.712 100.010 L 225.500 100.020 230.671 102.427 M 164.080 184.750 C 162.903 185.713, 161.672 188.167, 161.346 190.204 C 160.834 193.406, 161.166 194.320, 163.800 196.954 C 169.675 202.829, 178 199.467, 178 191.220 C 178 184.121, 169.617 180.225, 164.080 184.750 M 225.455 185.455 C 220.705 190.205, 222.997 198.346, 229.423 199.552 C 235.242 200.643, 239.913 196.945, 239.968 191.205 C 240.012 186.641, 236.254 183, 231.500 183 C 229.021 183, 227.149 183.760, 225.455 185.455" stroke="none" fill="#873e2f" fill-rule="evenodd"/><path d="M 180.944 226.844 C 177.937 229.279, 177.897 234.341, 180.861 237.306 C 182.942 239.386, 183.905 239.500, 199.423 239.500 C 214.115 239.500, 216.006 239.305, 217.895 237.595 C 220.642 235.109, 220.695 229.695, 218 227 C 216.163 225.163, 214.667 225, 199.611 225 C 185.173 225, 182.950 225.220, 180.944 226.844" stroke="none" fill="#da4a54" fill-rule="evenodd"/><path d="M 240 140.897 C 242.295 142.469, 242.755 195.508, 240.565 206.011 C 236.323 226.354, 222.406 243.819, 203.500 252.526 C 193.418 257.169, 186.945 258.499, 175 258.380 C 164.910 258.280, 156.600 256.337, 145.585 251.500 C 142.292 250.054, 149.188 259.079, 156.487 265.767 C 172.065 280.042, 194.920 286.248, 214.500 281.520 C 217.800 280.723, 220.891 280.055, 221.369 280.036 C 221.847 280.016, 222.056 284.182, 221.832 289.293 C 221.363 300.022, 219.564 304.136, 214 307.204 L 210.500 309.134 222.677 308.817 C 233.110 308.545, 235.258 308.203, 237.677 306.429 C 243.123 302.433, 243.993 299.088, 244.031 282 L 244.066 266.500 248.084 262.500 C 256.273 254.347, 262.538 242.561, 264.962 230.750 C 265.753 226.895, 266.626 225, 267.611 225 C 272.651 225, 283.062 215.941, 287.147 208 C 290.109 202.244, 290.814 192.051, 288.610 186.859 C 286.516 181.928, 281.667 177.278, 277.384 176.096 C 273.329 174.976, 271.444 175.447, 268.169 178.399 L 265.837 180.500 266.506 177.832 C 267.413 174.218, 265.306 164.569, 262.322 158.662 C 258.150 150.406, 249.253 142.853, 241 140.563 C 239.121 140.041, 238.872 140.124, 240 140.897 M 191.797 224.745 C 196.361 224.930, 203.561 224.929, 207.797 224.742 C 212.034 224.555, 208.300 224.404, 199.500 224.405 C 190.700 224.406, 187.234 224.559, 191.797 224.745" stroke="none" fill="#ffa68d" fill-rule="evenodd"/><path d="M 162.024 140.603 C 146.762 144.704, 136.641 156.971, 135.297 172.995 L 134.704 180.071 132.538 178.035 C 130.134 175.777, 125.123 175.356, 121.684 177.122 C 111.750 182.226, 108.439 195.161, 113.904 207.515 C 116.653 213.730, 125.453 222.318, 130.951 224.150 C 135.272 225.591, 135.370 225.722, 136.606 231.781 C 138.666 241.881, 142.726 249.820, 146.927 251.963 C 154.943 256.052, 165.173 258.364, 175.500 258.418 C 186.972 258.480, 193.603 257.084, 203.500 252.526 C 217.906 245.892, 228.584 235.244, 235.653 220.465 C 241.397 208.456, 242.152 202.309, 241.806 170.378 C 241.638 154.860, 241.198 141.862, 240.829 141.494 C 238.932 139.601, 229.593 139.051, 200 139.090 C 174.644 139.122, 166.296 139.455, 162.024 140.603 M 164.831 183.530 C 161.585 185.292, 159.553 190.699, 160.855 194.106 C 162.971 199.640, 168.907 202.134, 173.863 199.571 C 179.850 196.475, 180.871 189.718, 176.077 184.923 C 172.810 181.656, 169.122 181.199, 164.831 183.530 M 224.923 184.923 C 220.039 189.808, 221.857 197.808, 228.339 199.947 C 232.506 201.322, 235.923 200.184, 238.869 196.440 C 241.390 193.235, 241.540 190.945, 239.490 186.980 C 236.474 181.148, 229.660 180.186, 224.923 184.923 M 401.477 289.500 C 401.477 333.500, 401.600 351.354, 401.750 329.176 C 401.900 306.997, 401.900 270.997, 401.750 249.176 C 401.599 227.354, 401.476 245.500, 401.477 289.500 M 182.500 225.208 C 177.439 228.110, 176.526 233.617, 180.455 237.545 C 182.863 239.954, 183.218 240, 199.500 240 C 215.782 240, 216.137 239.954, 218.545 237.545 C 221.848 234.243, 221.684 230.530, 218.077 226.923 L 215.154 224 199.827 224.030 C 190.184 224.050, 183.758 224.486, 182.500 225.208 M 157.160 283.087 C 157.564 300.889, 158.103 302.800, 163.819 306.681 C 166.174 308.279, 169.178 308.535, 188.500 308.791 C 208.566 309.056, 210.808 308.915, 214 307.178 C 219.556 304.155, 221.363 300.030, 221.832 289.293 C 222.056 284.182, 221.847 280.016, 221.369 280.036 C 220.891 280.055, 217.800 280.723, 214.500 281.520 C 197.299 285.673, 176.852 281.299, 161.644 270.214 L 156.788 266.674 157.160 283.087 M 401.397 405 C 401.397 412.975, 401.553 416.238, 401.743 412.250 C 401.932 408.262, 401.932 401.738, 401.743 397.750 C 401.553 393.762, 401.397 397.025, 401.397 405" stroke="none" fill="#ffcbbe" fill-rule="evenodd"/><path d="M 463.776 92.733 C 466.128 92.945, 469.728 92.942, 471.776 92.727 C 473.824 92.512, 471.900 92.339, 467.500 92.343 C 463.100 92.346, 461.424 92.522, 463.776 92.733 M 479.826 94.314 C 481.867 96.488, 482 97.586, 482 112.314 L 482 128 456 128 L 430 128 430.229 149.750 L 430.458 171.500 430.749 150.250 L 431.040 129 450.770 128.997 C 461.621 128.995, 478.262 128.699, 487.750 128.340 L 505 127.685 505 112.477 C 505 98.606, 504.818 97.038, 502.927 94.635 C 500.901 92.059, 500.596 92, 489.253 92 L 477.651 92 479.826 94.314 M 431.042 173.500 C 431.006 176.653, 435.424 185.156, 439.125 189.058 C 440.981 191.015, 441.786 191.690, 440.914 190.558 C 436.658 185.037, 434.388 181.109, 432.801 176.521 C 431.847 173.759, 431.055 172.400, 431.042 173.500 M 493.437 191.250 L 490.500 194.500 493.750 191.563 C 495.538 189.948, 497 188.485, 497 188.313 C 497 187.540, 496.175 188.221, 493.437 191.250 M 8.450 197.407 C 6.773 198.137, 4.186 200.179, 2.700 201.944 L 0 205.153 0.083 311.827 C 0.156 405.036, 0.342 417.777, 1.555 412.773 C 4.366 401.174, 11.426 390.189, 21.888 381.132 L 28.500 375.408 28.795 367.954 C 29.310 354.915, 33.905 339.337, 40.256 329.099 C 41.484 327.120, 42.508 325.275, 42.532 325 C 42.556 324.725, 43.396 320.369, 44.399 315.319 C 46.201 306.243, 46.197 306.029, 44.111 296.541 C 42.135 287.556, 42 284.040, 42 241.472 L 42 196 26.750 196.039 C 16.346 196.066, 10.531 196.500, 8.450 197.407 M 359.994 238.750 C 359.989 280.332, 359.739 284.794, 356.596 299.500 C 355.224 305.924, 355.251 307.277, 356.925 315.938 L 358.749 325.376 356.661 322.438 C 352.696 316.858, 341.480 305.763, 335.411 301.416 C 327.467 295.726, 316.469 290.567, 306.500 287.856 C 299.553 285.967, 295.471 285.646, 275.500 285.417 C 258.034 285.217, 254.145 285.377, 259.337 286.082 C 275.826 288.320, 293.940 296.867, 306.651 308.405 C 317.376 318.141, 327.168 333.349, 331.502 347 C 333.229 352.442, 333.327 352.537, 340.804 355.989 C 351.673 361.009, 361.798 367.126, 371.538 374.557 L 380.042 381.046 379.771 293.273 C 379.513 209.713, 379.411 205.369, 377.647 202.768 C 374.780 198.541, 369.893 196, 364.632 196 L 360 196 359.994 238.750 M 140.750 341.749 C 152.988 341.908, 173.013 341.908, 185.250 341.749 C 197.488 341.590, 187.475 341.460, 163 341.460 C 138.525 341.460, 128.513 341.590, 140.750 341.749" stroke="none" fill="#eedfda" fill-rule="evenodd"/><path d="M 432.246 94.238 C 430.115 96.507, 430 97.432, 430 112.314 L 430 128 456 128 L 482 128 482 112.155 C 482 97.799, 481.820 96.147, 480.080 94.572 C 478.418 93.069, 475.213 92.768, 456.326 92.340 L 434.493 91.846 432.246 94.238 M 106.774 286.084 C 96.351 287.186, 86.232 290.311, 75.942 295.603 C 53.982 306.897, 36.430 328.979, 31.114 352 C 28.999 361.156, 27.391 375, 28.441 375 C 28.796 375, 31.429 373.286, 34.293 371.191 C 56.351 355.055, 83.308 345.057, 112.856 342.053 C 126.850 340.630, 276.779 340.639, 289.789 342.063 C 302.520 343.457, 312.467 345.520, 323.456 349.047 C 328.382 350.628, 332.546 351.788, 332.709 351.625 C 333.278 351.055, 329.250 340.438, 326.020 333.996 C 315.797 313.605, 297.008 297.232, 275.744 290.185 C 267.358 287.406, 253.916 285, 246.776 285 L 244 285 243.996 292.250 C 243.993 297.757, 243.507 300.296, 241.974 302.810 C 238.355 308.747, 236.648 309, 200.282 308.996 C 169.335 308.993, 167.318 308.881, 164.241 307.005 C 159.037 303.833, 157.008 299.555, 157.004 291.750 L 157 285 135.750 285.133 C 124.063 285.206, 111.023 285.634, 106.774 286.084" stroke="none" fill="#f9f6f6" fill-rule="evenodd"/><path d="M 338 135.110 C 329.733 137.052, 323.687 137.922, 320.145 137.682 L 314.790 137.318 315.436 140.909 C 315.792 142.884, 316.543 147.273, 317.106 150.662 C 317.739 154.477, 317.988 174.096, 317.757 202.162 C 317.431 241.938, 317.168 248.236, 315.612 253.500 C 313.135 261.879, 313.199 266.805, 315.957 279.827 L 318.355 291.154 324.928 294.464 C 333.957 299.011, 342.743 305.812, 350.585 314.326 L 357.193 321.500 356.346 317 C 355.034 310.023, 355.363 301.228, 357.248 292.865 C 359.692 282.026, 359.911 192.798, 357.516 183.677 C 355.215 174.912, 355.494 168.894, 358.922 153.386 C 362.027 139.341, 362.058 137.086, 359.193 133.750 C 357.127 131.344, 352.875 131.617, 338 135.110 M 45.984 305.643 C 45.976 308.864, 45.342 314.164, 44.576 317.420 L 43.184 323.339 45.749 319.920 C 47.159 318.039, 51.339 313.530, 55.036 309.901 L 61.759 303.301 55.412 302.132 C 51.922 301.489, 48.376 300.698, 47.533 300.374 C 46.264 299.887, 45.997 300.796, 45.984 305.643 M 228.500 343.895 C 240.486 346.083, 251.431 349.101, 260.108 352.610 C 287.272 363.596, 313.910 383.785, 322.294 399.740 C 327.905 410.419, 328.968 416.608, 328.985 438.711 C 328.999 457.196, 328.917 457.999, 326.811 459.961 L 324.623 462 360.677 462 C 395.637 462, 396.810 461.937, 399.365 459.927 L 402 457.855 402 440.293 C 402 430.635, 401.550 420.992, 401 418.866 C 400.450 416.740, 399.499 413.087, 398.887 410.750 C 396.517 401.706, 391.676 393.702, 383.924 386.014 C 364.021 366.274, 335.171 351.180, 305.151 344.801 C 296.580 342.979, 291.192 342.712, 257 342.410 L 218.500 342.070 228.500 343.895" stroke="none" fill="#61a2f9" fill-rule="evenodd"/><path d="M 42.695 133.111 C 38.962 135.283, 38.870 138.361, 42.104 152.780 C 45.619 168.448, 45.940 174.941, 43.631 183.644 C 41.193 192.829, 41.198 279.386, 43.637 292.115 C 44.556 296.910, 45.778 300.689, 46.394 300.637 C 47.002 300.586, 50.680 301.154, 54.566 301.900 L 61.632 303.255 70.662 297.811 C 80.327 291.984, 91.635 287.751, 102.053 286.061 C 105.599 285.486, 119.412 285.012, 132.750 285.008 L 157 285 157 276.407 L 157 267.815 151.426 261.657 C 144.846 254.389, 138.616 242.337, 136.307 232.412 L 134.659 225.324 130.400 224.184 C 125.134 222.776, 117.252 215.203, 113.900 208.331 C 110.369 201.092, 110.085 190.931, 113.249 185 C 117.341 177.328, 124.783 173.572, 130.494 176.296 L 133.778 177.862 134.389 174.806 C 134.725 173.125, 135 162.977, 135 152.255 L 135 132.759 116.250 133.259 C 101.386 133.655, 95.946 134.193, 90 135.856 C 80.190 138.599, 78.432 138.544, 62.500 135 C 47.878 131.747, 45.439 131.514, 42.695 133.111 M 267 155.526 L 267 178.051 270.121 176.437 C 276.228 173.279, 283.943 177.091, 288.214 185.376 C 295.380 199.276, 284.584 220.482, 267.850 225.378 C 266.812 225.681, 265.933 227.465, 265.483 230.180 C 263.660 241.162, 256.096 255.594, 248.041 263.460 L 244 267.406 244 276.203 L 244 285 268.912 285 C 294.946 285, 303.492 285.907, 313.564 289.740 L 318.629 291.667 316.232 281.083 C 313.249 267.907, 313.116 262.390, 315.569 253.500 C 317.352 247.037, 317.500 242.853, 317.500 199 C 317.500 143.839, 316.931 137.771, 311.595 136.061 C 305.283 134.038, 295.112 133.015, 281.250 133.008 L 267 133 267 155.526 M 111 342.662 C 95.444 344.419, 75.051 349.920, 61.420 356.036 C 38.109 366.495, 14.104 385.928, 6.923 400.153 C 1.398 411.097, -0 419.076, -0 439.660 C 0 456.667, 0.145 458.145, 2 460 C 3.983 461.983, 5.333 462, 164.311 462 C 324.262 462, 324.628 461.995, 326.811 459.961 C 328.917 457.999, 328.999 457.196, 328.985 438.711 C 328.968 416.608, 327.905 410.419, 322.294 399.740 C 315.176 386.194, 295.415 369.825, 272.500 358.492 C 258.445 351.541, 249.039 348.189, 234.077 344.802 C 224.945 342.735, 221.943 342.626, 169.500 342.450 C 139.250 342.349, 112.925 342.444, 111 342.662" stroke="none" fill="#80b4fb" fill-rule="evenodd"/><path d="M 158.929 100.367 C 148.873 103.079, 141.636 109.179, 137.417 118.500 C 134.782 124.322, 134.596 126.619, 134.854 150 L 135.047 167.500 137.383 161.822 C 140.438 154.394, 144.840 148.953, 150.984 145.010 C 160.032 139.204, 161.773 138.998, 201.409 139.024 C 236.596 139.047, 237.638 139.104, 243 141.313 L 248.500 143.578 247.964 132.539 C 247.346 119.811, 245.487 114.554, 239.479 108.546 C 237.403 106.470, 233.436 103.720, 230.663 102.435 L 225.622 100.100 232.561 99.746 C 236.378 99.551, 222.400 99.334, 201.500 99.263 C 174.167 99.171, 162.217 99.481, 158.929 100.367 M 251.054 104.859 C 256.088 108.096, 258.852 110.938, 261.891 116 C 263.047 117.925, 263.994 118.972, 263.996 118.328 C 264.007 115.081, 250.972 102, 247.726 102 C 247.112 102, 248.609 103.287, 251.054 104.859 M 265.790 146.842 C 265.631 157.756, 265.784 167.993, 266.132 169.592 C 266.479 171.192, 266.817 162.262, 266.882 149.750 C 266.947 137.238, 266.793 127, 266.540 127 C 266.287 127, 265.950 135.929, 265.790 146.842" stroke="none" fill="#b96236" fill-rule="evenodd"/><path d="M 25.383 50.946 C 15.621 53.286, 5.839 61.704, 2.362 70.756 C 0.679 75.137, 0.516 80.448, 0.229 140.173 L -0.082 204.847 3.805 200.960 C 6.571 198.194, 8.881 196.883, 11.816 196.413 L 15.940 195.754 16.220 136.627 L 16.500 77.500 18.788 73.821 C 20.131 71.661, 22.842 69.287, 25.353 68.071 L 29.631 66 244.316 66 L 459 66 459 79 L 459 92 467 92 L 475 92 475 79 L 475 66 491.326 66 C 507.098 66, 507.725 65.922, 509.826 63.686 C 512.529 60.808, 512.645 56.018, 510.088 52.861 L 508.177 50.500 268.338 50.349 C 136.427 50.266, 27.097 50.535, 25.383 50.946 M 456.750 128.749 L 431 129.034 431 149.835 C 431 173.509, 431.730 177.427, 437.729 185.966 C 439.803 188.917, 443.580 192.759, 446.121 194.502 C 449.568 196.866, 450.409 197.905, 449.430 198.586 C 446.995 200.280, 437.936 216.412, 436.344 221.887 C 435.249 225.655, 434.900 229.871, 435.204 235.662 L 435.642 244.006 448.527 270.054 C 468.641 310.717, 469.401 307.824, 429 344.389 L 401.500 369.279 401 286.658 L 400.500 204.038 397.412 200.950 C 393.655 197.193, 389.134 196.050, 378 196.041 L 369.500 196.034 372.663 198.060 C 374.403 199.175, 376.653 201.305, 377.663 202.793 C 379.406 205.361, 379.514 210.010, 379.771 293.437 L 380.043 381.375 385.893 387.467 C 392.057 393.887, 396.160 400.880, 399.112 410 L 400.892 415.500 400.946 403.328 L 401 391.156 432.750 362.533 C 450.212 346.791, 466.418 331.568, 468.763 328.705 C 476.326 319.470, 479.614 305.939, 476.982 294.885 C 476.277 291.923, 470.142 278.332, 463.350 264.681 C 451.473 240.813, 451 239.621, 451 233.546 C 451 226.036, 451.704 224.211, 459.400 211.781 L 465.301 202.251 471.256 201.711 C 484.014 200.554, 497.295 190.462, 502.136 178.247 C 504.213 173.005, 504.446 170.543, 504.790 150.250 L 505.166 128 493.833 128.232 C 487.600 128.360, 470.913 128.593, 456.750 128.749 M 134.116 175.809 C 134.037 177.374, 133.597 177.876, 132.750 177.367 C 132.032 176.936, 132.138 177.402, 133 178.464 C 134.346 180.122, 134.533 180.141, 134.823 178.656 C 135.001 177.745, 134.941 176.213, 134.689 175.250 C 134.354 173.966, 134.201 174.115, 134.116 175.809 M 359.460 240 C 359.460 264.475, 359.590 274.488, 359.749 262.250 C 359.908 250.013, 359.908 229.988, 359.749 217.750 C 359.590 205.513, 359.460 215.525, 359.460 240 M 279.946 217.750 L 276.500 221.500 280.250 218.054 C 283.740 214.846, 284.460 214, 283.696 214 C 283.529 214, 281.842 215.688, 279.946 217.750 M 346.500 311 C 348.648 313.200, 350.631 315, 350.906 315 C 351.181 315, 349.648 313.200, 347.500 311 C 345.352 308.800, 343.369 307, 343.094 307 C 342.819 307, 344.352 308.800, 346.500 311 M 225.315 341.749 C 235.664 341.912, 252.314 341.911, 262.315 341.748 C 272.317 341.585, 263.850 341.452, 243.500 341.453 C 223.150 341.453, 214.967 341.586, 225.315 341.749 M 17 385.500 C 14.571 387.975, 12.809 390, 13.084 390 C 13.359 390, 15.571 387.975, 18 385.500 C 20.429 383.025, 22.191 381, 21.916 381 C 21.641 381, 19.429 383.025, 17 385.500" stroke="none" fill="#b1c0e6" fill-rule="evenodd"/></svg>