<svg xmlns="http://www.w3.org/2000/svg" width="512" height="512" viewBox="0 0 512 512" version="1.1"><path d="M 133.804 193.290 C 79.285 253.028, 43.258 315.457, 27.079 378.225 C 24.991 386.324, 23.044 392.711, 22.752 392.419 C 21.632 391.299, 27.250 414.794, 28.695 417.271 C 28.942 417.695, 32.415 411.620, 36.413 403.771 C 58.779 359.855, 88.604 317.566, 121.500 283.124 C 131.350 272.811, 147.225 258.838, 160.536 248.763 C 170.691 241.078, 172.253 239.256, 173.998 233.067 C 175.606 227.362, 174.101 222.373, 167.945 212.998 C 162.446 204.623, 145.338 182, 144.504 182 C 144.286 182, 139.471 187.081, 133.804 193.290 M 277.768 236.725 C 279.565 236.947, 282.265 236.943, 283.768 236.715 C 285.271 236.486, 283.800 236.304, 280.500 236.310 C 277.200 236.315, 275.971 236.502, 277.768 236.725 M 196.287 255.740 C 199.469 255.939, 204.419 255.937, 207.287 255.736 C 210.154 255.535, 207.550 255.372, 201.500 255.374 C 195.450 255.376, 193.104 255.541, 196.287 255.740 M 354.287 255.740 C 357.469 255.939, 362.419 255.937, 365.287 255.736 C 368.154 255.535, 365.550 255.372, 359.500 255.374 C 353.450 255.376, 351.104 255.541, 354.287 255.740" stroke="none" fill="#a5b0bc" fill-rule="evenodd"/><path d="M 400.405 177.500 C 400.406 186.300, 400.559 189.766, 400.745 185.203 C 400.930 180.639, 400.929 173.439, 400.742 169.203 C 400.555 164.966, 400.404 168.700, 400.405 177.500 M 118.500 171.898 C 113.689 174.128, 90.218 198.010, 79.579 211.500 C 77.410 214.250, 75.380 216.725, 75.068 217 C 73.623 218.272, 67.729 226.424, 61.330 236 C 39.716 268.346, 26.156 302.225, 21.455 335.629 C 19.194 351.696, 19.861 383.995, 22.620 392 C 22.904 392.825, 24.877 386.750, 27.005 378.500 C 43.284 315.390, 79.186 253.137, 133.844 193.246 C 142.869 183.356, 144.396 182.076, 145.816 183.206 C 146.712 183.918, 145.483 182.148, 143.085 179.273 C 135.777 170.510, 127.105 167.909, 118.500 171.898 M 203.343 213.500 C 203.346 217.900, 203.522 219.576, 203.733 217.224 C 203.945 214.872, 203.942 211.272, 203.727 209.224 C 203.512 207.176, 203.339 209.100, 203.343 213.500 M 341.328 213.500 C 341.333 217.350, 341.513 218.802, 341.730 216.728 C 341.946 214.653, 341.943 211.503, 341.722 209.728 C 341.501 207.952, 341.324 209.650, 341.328 213.500 M 302.389 280.500 C 302.390 287.650, 302.550 290.444, 302.742 286.708 C 302.935 282.973, 302.934 277.123, 302.739 273.708 C 302.545 270.294, 302.387 273.350, 302.389 280.500" stroke="none" fill="#8597a5" fill-rule="evenodd"/><path d="M 153 254.862 C 148.325 258.605, 142.280 263.690, 139.567 266.161 L 134.633 270.655 142.802 284.114 L 150.971 297.572 157.191 291.744 C 160.612 288.539, 166.916 283.155, 171.200 279.781 L 178.989 273.646 176.901 270.073 C 169.550 257.488, 163.359 248.014, 162.500 248.034 C 161.950 248.046, 157.675 251.119, 153 254.862 M 330.755 393.761 C 329.899 403.211, 323.853 412.709, 315.387 417.906 C 313.547 419.035, 313.546 419.094, 315.367 420.282 C 316.393 420.952, 322.829 425.207, 329.668 429.737 C 336.506 434.267, 341.873 437.603, 341.592 437.149 C 341.312 436.696, 342.894 434.564, 345.108 432.413 C 350.124 427.537, 355.459 418.887, 357.995 411.514 L 359.931 405.887 347.003 397.427 C 339.893 392.773, 333.448 388.725, 332.681 388.431 C 331.620 388.024, 331.160 389.295, 330.755 393.761 M 361 454.500 C 362.866 456.425, 364.617 458, 364.892 458 C 365.167 458, 363.866 456.425, 362 454.500 C 360.134 452.575, 358.383 451, 358.108 451 C 357.833 451, 359.134 452.575, 361 454.500" stroke="none" fill="#d97c40" fill-rule="evenodd"/><path d="M 90.500 169.862 C 86.381 172.409, 76.436 183.052, 75.541 185.870 C 74.262 189.899, 75.879 194.419, 80.428 199.533 L 84.847 204.500 87.258 202 C 88.584 200.625, 94.304 194.672, 99.969 188.771 L 110.269 178.042 107.583 174.520 C 102.698 168.116, 96.193 166.342, 90.500 169.862 M 171.950 279.160 C 161.158 287.793, 152 296.142, 151.995 297.353 C 151.992 297.984, 154.881 302.775, 158.416 308 C 174.502 331.782, 191.992 348.966, 218.015 366.555 L 229.500 374.318 230.230 368.531 C 230.635 365.317, 232.077 360.837, 233.473 358.456 C 236.319 353.599, 243.315 347.210, 246.723 346.355 C 247.975 346.040, 249 345.446, 249 345.034 C 249 344.622, 246.311 342.624, 243.024 340.595 C 219.570 326.119, 197.828 304.541, 183.447 281.468 C 180.887 277.360, 178.705 274, 178.596 274 C 178.488 274, 175.497 276.322, 171.950 279.160 M 358.064 411.250 C 356.198 417.578, 351.208 425.852, 345.777 431.620 L 340.956 436.739 348.228 442.603 C 352.228 445.828, 358.922 451.911, 363.106 456.120 C 367.289 460.330, 371.715 464.092, 372.942 464.482 C 377.199 465.833, 381.433 464.150, 386.118 459.243 C 394.793 450.160, 396 448.210, 396 443.282 C 396 438.855, 395.722 438.441, 386.750 429.518 C 378.386 421.200, 361.477 407, 359.935 407 C 359.595 407, 358.753 408.913, 358.064 411.250" stroke="none" fill="#e3986d" fill-rule="evenodd"/><path d="M 269 75.630 C 238.228 80.037, 218.152 89.300, 198.334 108.235 C 174.967 130.559, 162.670 157.079, 160.512 189.800 L 159.833 200.101 166.448 210.070 C 170.087 215.553, 173.500 221.184, 174.032 222.585 C 176.221 228.342, 174.320 236.902, 169.778 241.736 L 167.651 244 169.877 246.369 C 171.101 247.672, 174.442 250.025, 177.301 251.598 C 182.263 254.328, 183.236 254.482, 198.679 254.979 C 213.050 255.442, 215.173 255.734, 217.679 257.592 C 222.171 260.923, 224.657 265.422, 225.373 271.518 C 226.940 284.849, 234.152 291.447, 248.482 292.658 L 256 293.293 256 280.081 C 256 272.814, 256.433 266.060, 256.962 265.071 C 257.491 264.083, 259.291 262.708, 260.962 262.016 C 264.518 260.543, 269.408 262.026, 271.038 265.071 C 271.567 266.060, 272 272.748, 272 279.934 L 272 293 279.500 293 L 287 293 287 279.934 C 287 272.748, 287.433 266.060, 287.962 265.071 C 289.550 262.105, 294.490 260.546, 297.870 261.946 C 302.176 263.730, 303 266.743, 303 280.695 L 303 293.296 310.975 292.681 C 320.054 291.981, 325.364 289.734, 329.473 284.850 C 332.890 280.789, 333.961 278.038, 335.044 270.553 C 335.949 264.291, 337.828 260.965, 342.383 257.562 C 344.818 255.743, 347.045 255.436, 361.321 254.954 C 376.266 254.450, 377.886 254.208, 382.563 251.782 C 388.597 248.652, 394.424 242.484, 397.356 236.122 C 399.282 231.944, 399.519 229.406, 399.828 209.686 C 400.339 177.113, 397.880 163.677, 387.508 142.371 C 369.712 105.817, 334.791 81.038, 294.026 76.039 C 285.951 75.049, 274.380 74.860, 269 75.630 M 205.073 202.635 C 203.349 204.826, 203 206.686, 203 213.680 C 203 221.277, 203.238 222.329, 205.455 224.545 C 207.002 226.093, 209.052 227, 211 227 C 212.948 227, 214.998 226.093, 216.545 224.545 C 218.783 222.308, 219 221.305, 219 213.220 C 219 205.240, 218.767 204.130, 216.686 202.174 C 213.310 199.003, 207.756 199.223, 205.073 202.635 M 343.073 202.635 C 341.349 204.826, 341 206.686, 341 213.680 C 341 221.277, 341.238 222.329, 343.455 224.545 C 346.491 227.582, 350.799 227.733, 354.365 224.927 C 356.872 222.955, 357 222.407, 357 213.602 C 357 205.223, 356.781 204.143, 354.686 202.174 C 351.310 199.003, 345.756 199.223, 343.073 202.635 M 277.260 215.818 C 275.416 216.989, 270 228.659, 270 231.459 C 270 235.146, 273.513 237, 280.500 237 C 291.393 237, 293.448 233.124, 287.858 223.122 C 283.550 215.415, 280.838 213.546, 277.260 215.818 M 251.718 345.034 C 243.602 347.068, 236.258 353.213, 232.635 361 C 229.444 367.858, 229.702 378.878, 233.211 385.590 C 240.074 398.720, 254.445 404.334, 268.899 399.533 C 284.583 394.324, 292.062 375.979, 284.684 360.818 C 278.727 348.577, 264.589 341.808, 251.718 345.034 M 313.396 373.754 C 313.202 388.264, 307.623 401.365, 297.176 411.842 C 293.698 415.331, 291.148 418.481, 291.509 418.843 C 291.871 419.204, 296.292 419.497, 301.333 419.493 C 312.224 419.484, 316.443 417.711, 322.824 410.462 C 330.855 401.338, 332.220 388.388, 326.266 377.788 C 323.718 373.252, 316.267 365.992, 314.172 366.004 C 313.803 366.006, 313.453 369.494, 313.396 373.754" stroke="none" fill="#ebebeb" fill-rule="evenodd"/><path d="M 266.099 45.050 C 221.695 50.605, 182.787 81.771, 167.540 124 C 162.108 139.046, 160.920 146.819, 160.511 170 C 160.235 185.669, 160.360 189.195, 160.973 183 C 162.486 167.696, 167.168 152.785, 175.051 138.165 C 186.658 116.640, 207.449 96.930, 229.464 86.580 C 280.724 62.483, 341.518 77.734, 376.122 123.371 C 386.804 137.459, 396.414 160.304, 398.891 177.500 C 399.632 182.636, 399.773 181.412, 399.874 169 C 400.012 152.075, 398.251 139.529, 393.927 126.623 C 380.069 85.260, 345.187 54.748, 302.257 46.438 C 292.614 44.572, 275.252 43.905, 266.099 45.050 M 291.581 364.336 L 287.661 365.519 287.504 373.009 C 287.311 382.156, 284.297 388.803, 277.702 394.623 C 273.544 398.294, 273.368 398.662, 274.405 401.547 C 276.367 407.006, 280.095 411.969, 284.520 415.014 C 286.907 416.656, 289.350 418, 289.949 418 C 290.547 418, 293.841 415.187, 297.269 411.750 C 307.632 401.355, 312.833 389.187, 313.497 373.780 L 313.873 365.059 310.187 364.035 C 305.384 362.701, 296.525 362.845, 291.581 364.336" stroke="none" fill="#ddd5d1" fill-rule="evenodd"/><path d="M 254.500 1.522 C 228.408 5.727, 200.544 17.685, 179.994 33.496 C 139.256 64.839, 115 113.903, 115 164.961 C 115 169.382, 115.170 173, 115.378 173 C 115.586 173, 117.371 172.325, 119.346 171.500 C 124.318 169.422, 129.595 169.625, 134.686 172.090 C 138.717 174.041, 142.908 178.683, 157.203 197.031 L 159.906 200.500 159.953 177.381 C 160.013 147.951, 161.817 136.419, 169.139 118.663 C 183.559 83.695, 213.974 57.396, 251.687 47.286 C 260.611 44.894, 263.175 44.656, 280 44.656 C 296.784 44.656, 299.402 44.898, 308.221 47.263 C 330.335 53.194, 346.487 62.005, 361.817 76.500 C 377.461 91.293, 387.114 105.994, 393.928 125.406 C 400.005 142.720, 400.518 148.123, 400.239 191.889 L 399.987 231.278 397.358 237.137 C 394.312 243.924, 388.018 250.203, 381.176 253.282 C 377.311 255.020, 373.802 255.482, 360.950 255.943 C 348.291 256.396, 344.889 256.835, 342.652 258.304 C 338.669 260.920, 336.193 265.585, 335.420 271.934 C 334.628 278.439, 332.315 283.426, 328.342 287.197 C 323.863 291.447, 318.965 293, 310.032 293 L 302 293 302 279.500 C 302 267.333, 301.802 265.802, 300 264 C 297.474 261.474, 292.923 261.433, 289.861 263.909 C 287.623 265.719, 287.483 266.527, 287.173 279.409 L 286.845 293 279.423 293 L 272 293 272 281.468 C 272 264.912, 269.498 260.403, 261.434 262.427 C 257.348 263.453, 256 268.200, 256 281.570 L 256 293.205 247.676 292.853 C 240.605 292.553, 238.723 292.085, 235.184 289.741 C 229.170 285.760, 225.979 280.396, 225.019 272.653 C 224.048 264.826, 221.867 260.848, 217.090 258.193 C 214.078 256.518, 211.086 256.126, 198.500 255.758 C 182.014 255.275, 179.591 254.624, 171.622 248.541 C 166.523 244.649, 165.733 244.405, 164.220 246.250 C 163.474 247.160, 166.362 252.724, 174.848 266.720 C 197.495 304.075, 210.561 318.465, 239.312 337.718 L 249.124 344.289 256.524 344.093 C 260.594 343.985, 265.651 344.414, 267.761 345.046 C 273.917 346.891, 280.540 352.370, 284.278 358.711 C 286.155 361.895, 288.322 364.422, 289.095 364.327 C 289.868 364.232, 292.975 363.607, 296 362.938 C 309.786 359.892, 324.401 368.414, 329.076 382.224 C 330.590 386.697, 331.353 387.394, 342.590 394.575 C 360.218 405.839, 372.167 415.181, 384.699 427.495 C 400.229 442.755, 400.471 444.870, 388.105 457.250 C 380.876 464.487, 380.082 465, 376.112 465 C 372.089 465, 371.304 464.465, 361.513 455.059 C 350.204 444.195, 337.601 434.463, 322.613 425.021 C 313.357 419.189, 312.774 418.969, 309.218 419.956 C 296.116 423.595, 281.550 417.004, 275.332 404.623 C 273.917 401.806, 272.683 399.407, 272.591 399.294 C 272.498 399.181, 270.414 399.784, 267.961 400.635 C 261.661 402.818, 251.821 402.096, 245.670 398.998 C 237.572 394.920, 230.078 384.757, 230.022 377.776 C 230.003 375.462, 228.607 374.118, 220.750 368.855 C 185.982 345.565, 168.533 326.574, 142.553 283.750 C 138.299 276.738, 134.492 271, 134.093 271 C 133.695 271, 129.236 275.214, 124.184 280.365 L 115 289.731 114.978 368.615 C 114.953 456.999, 115.361 451.964, 107.684 458.704 C 102.801 462.991, 98.561 463.988, 85.173 463.994 C 73.888 464, 73.835 464.011, 70.802 467.044 C 68.064 469.782, 67.825 470.510, 68.418 474.294 C 70.076 484.876, 79.462 498.265, 89.868 504.894 C 92.416 506.517, 97.313 508.784, 100.751 509.933 L 107.002 512.022 281.751 511.761 L 456.500 511.500 462.243 509.181 C 474.636 504.176, 485.207 493.279, 489.858 480.712 C 492.708 473.013, 492.597 469.870, 489.364 466.636 C 486.815 464.088, 486.336 464, 475.013 464 C 468.570 464, 461.769 463.488, 459.899 462.862 C 454.759 461.141, 450.234 457.356, 447.741 452.692 L 445.500 448.500 444.945 295.500 C 444.397 144.341, 444.365 142.384, 442.269 132.849 C 434.759 98.673, 420.538 72.399, 396.572 48.422 C 372.486 24.325, 346.443 10.114, 313.177 2.918 C 300.312 0.134, 267.895 -0.636, 254.500 1.522 M 206.635 202.073 C 204.127 204.045, 204 204.592, 204 213.418 C 204 224.031, 205.122 226, 211.174 226 C 216.975 226, 218.500 223.359, 218.500 213.308 C 218.500 205.255, 218.358 204.705, 215.694 202.413 C 212.257 199.457, 210.065 199.374, 206.635 202.073 M 344.635 202.073 C 342.149 204.028, 342 204.637, 342 212.850 C 342 223.597, 343.276 226, 348.984 226 C 354.804 226, 357 222.688, 357 213.912 C 357 206.043, 355.774 202.674, 352.343 201.110 C 348.916 199.549, 347.641 199.708, 344.635 202.073 M 273.466 223.067 C 267.853 234.214, 269.307 236.406, 281.914 235.803 C 287.044 235.558, 288.532 235.098, 289.647 233.414 C 290.882 231.546, 290.633 230.551, 287.263 223.914 C 283.876 217.241, 283.179 216.469, 280.293 216.190 C 277.229 215.894, 276.924 216.200, 273.466 223.067" stroke="none" fill="#405058" fill-rule="evenodd"/></svg>